<svg version="1.1" xmlns="http://www.w3.org/2000/svg" style="display: block;" viewBox="0 0 2048 2048" width="1024" height="1024" preserveAspectRatio="none">
<defs>
	<linearGradient id="Gradient1" gradientUnits="userSpaceOnUse" x1="641.332" y1="986.45" x2="611.375" y2="993.068">
		<stop class="stop0" offset="0" stop-opacity="1" stop-color="rgb(52,65,97)"/>
		<stop class="stop1" offset="1" stop-opacity="1" stop-color="rgb(27,126,148)"/>
	</linearGradient>
	<linearGradient id="Gradient2" gradientUnits="userSpaceOnUse" x1="1055.16" y1="984.48" x2="1044.22" y2="968.633">
		<stop class="stop0" offset="0" stop-opacity="1" stop-color="rgb(31,68,119)"/>
		<stop class="stop1" offset="1" stop-opacity="1" stop-color="rgb(61,60,134)"/>
	</linearGradient>
</defs>
<path transform="translate(0,0)" fill="rgb(43,9,60)" d="M 1156.13 514.674 C 1165.03 514.228 1173.58 511.364 1182.11 510.718 C 1197.62 509.543 1213.77 510.277 1229.3 510.943 C 1249.79 511.314 1276.51 517.732 1295.03 518.464 C 1329.81 523.135 1373.65 539.17 1403.86 557.194 C 1447.51 584.239 1457.06 581.783 1489.13 623.015 C 1503.08 639.744 1525.91 671.752 1536.88 690.735 C 1544.33 705.507 1552.75 720.485 1560.11 735.341 C 1562.32 739.785 1576.22 768.411 1578.61 771.298 C 1595.41 804.013 1615.14 849.368 1605.19 886.795 C 1601.33 923.539 1601.83 952.48 1576.38 981.555 C 1574.74 983.431 1566.05 994.701 1564.91 995.247 C 1547.51 1003.53 1505.25 1007.74 1486.87 1009.36 C 1477.1 1013.67 1414.91 1010.52 1402.87 1008.07 C 1396.53 1008.57 1378.75 1005.61 1371.85 1004.49 C 1344.45 1000.06 1317.58 994.171 1289.96 990.676 L 1287.17 1014.57 C 1275.51 1002.26 1270.93 998.461 1256.97 988.869 C 1248.64 1008.8 1239.68 1029.33 1231.73 1049.31 C 1228.7 1044.23 1227.7 1042.36 1225.42 1036.84 C 1216.4 1040.49 1213.19 1043.23 1206.62 1050.53 C 1203.27 1054.79 1201.5 1057.83 1199.55 1062.97 C 1198.16 1066.59 1197.53 1067.06 1195.07 1069.91 C 1193.08 1078.41 1186.3 1112.99 1189.07 1119.8 C 1180.38 1120.35 1170.58 1121.22 1161.97 1120.9 C 1159.5 1082.54 1151.17 1031.79 1146.75 992.458 C 1128.19 993.9 1104.96 997.438 1086.12 999.801 C 1077.13 1000.8 1067.96 1001.71 1059.03 1003.02 C 1049.31 1005.15 1025.46 1007.51 1014.7 1008.53 C 1007.51 1011.29 1005.75 1013.75 1006.12 1021.62 C 1001.89 1023.06 1000.44 1023.1 997.816 1026.42 C 997.412 1027.88 996.896 1029.49 996.643 1030.96 C 996.949 1034.25 996.881 1036.8 998.01 1039.82 C 995.199 1041.8 993.93 1041.57 990.508 1041.8 L 988.778 1043.41 L 988.251 1041.4 L 985.491 1038.87 C 980.841 1045.42 971.685 1055.85 963.731 1057.87 C 951.454 1060.98 943.52 1050.17 933.732 1044.64 L 932.671 1044.05 C 925.059 1044.6 916.834 1046.69 909.31 1048.37 C 904.817 1043.04 903.483 1040.31 900.133 1034.21 L 897.962 1031.56 C 899.641 1028.2 902.75 1024.75 905.172 1021.77 C 895.934 1022.58 874.805 1026.07 867.958 1026.17 C 848.205 1029.27 828.895 1031.24 809.086 1033.63 C 802.258 1034.46 787.497 1035.7 781.139 1037.14 C 769.123 1039.39 756.284 1040.48 744.09 1041.67 C 739.756 1039.11 739.68 1040.38 734.22 1036.11 C 721 1038.34 711.105 1035.62 697.93 1034.18 L 697.126 1032.93 C 690.37 1028.13 671.611 1014.49 665.25 1011.48 C 662.761 1009.5 660.729 1007.03 658.586 1004.66 C 656.513 1001.86 647.281 994.296 644.354 991.825 C 641.466 988.553 630.959 979.642 627.209 976.309 C 623.615 974.026 614.185 964.787 608.964 960.849 L 607.518 961.266 C 603.952 948.98 601.634 917.744 599.689 903.149 C 588.925 900.82 543.758 890.456 535.868 890.501 C 533.885 886.626 533.404 885.978 530.653 882.555 C 528.664 878.34 525.098 872.754 522.633 868.626 L 512.374 851.248 C 511.014 848.308 509.273 845.415 507.666 842.58 C 503.422 834.188 497.513 825.645 492.241 817.788 C 482.847 803.239 457.232 776.222 445.13 763.372 C 436.845 756.542 434.744 747.959 434.168 737.854 C 434.234 734.326 433.563 732.742 432.75 729.275 L 426.647 717.615 C 433.963 700.309 453.24 675.289 468.347 663.771 C 469.12 658.312 468.877 650.126 469.42 644.082 C 472.355 611.414 493.349 612.787 520.884 617.462 L 526.431 617.845 C 559.789 589.548 598.268 595.429 624.968 629.011 C 626.182 630.538 626.774 631.198 627.736 632.901 C 628.816 633.173 629.896 633.444 630.976 633.715 C 643.951 629.169 656.625 624.375 669.761 620.251 C 678.743 622.188 687.829 625.866 696.675 628.677 C 703.271 630.773 708.155 631.197 714.36 632.781 C 720.254 641.334 724.496 648.99 729.874 657.031 C 734.985 659.144 740.111 661.222 745.252 663.263 C 760.356 668.066 778.234 676.33 793.24 682.278 C 819.996 692.882 843.117 700.875 870.781 708.465 C 877.075 696.398 883.659 684.485 890.528 672.736 C 909.463 640.025 932.814 604.53 968.391 589.449 C 977.222 586.504 997.535 575.957 1007.05 571.551 C 1027.38 562.36 1047.79 553.353 1068.29 544.531 C 1093.15 532.78 1129.74 522.084 1156.13 514.674 z M 520.884 617.462 C 493.349 612.787 472.355 611.414 469.42 644.082 C 468.877 650.126 469.12 658.312 468.347 663.771 C 453.24 675.289 433.963 700.309 426.647 717.615 L 432.75 729.275 C 433.563 732.742 434.234 734.326 434.168 737.854 C 434.744 747.959 436.845 756.542 445.13 763.372 C 457.232 776.222 482.847 803.239 492.241 817.788 C 497.513 825.645 503.422 834.188 507.666 842.58 C 509.273 845.415 511.014 848.308 512.374 851.248 L 522.633 868.626 C 525.098 872.754 528.664 878.34 530.653 882.555 C 533.404 885.978 533.885 886.626 535.868 890.501 C 543.758 890.456 588.925 900.82 599.689 903.149 C 601.634 917.744 603.952 948.98 607.518 961.266 L 608.964 960.849 C 614.185 964.787 623.615 974.026 627.209 976.309 C 630.959 979.642 641.466 988.553 644.354 991.825 C 647.281 994.296 656.513 1001.86 658.586 1004.66 C 660.729 1007.03 662.761 1009.5 665.25 1011.48 C 671.611 1014.49 690.37 1028.13 697.126 1032.93 L 697.93 1034.18 C 711.105 1035.62 721 1038.34 734.22 1036.11 C 739.68 1040.38 739.756 1039.11 744.09 1041.67 C 756.284 1040.48 769.123 1039.39 781.139 1037.14 C 787.497 1035.7 802.258 1034.46 809.086 1033.63 C 828.895 1031.24 848.205 1029.27 867.958 1026.17 C 874.805 1026.07 895.934 1022.58 905.172 1021.77 C 902.75 1024.75 899.641 1028.2 897.962 1031.56 L 900.133 1034.21 C 903.483 1040.31 904.817 1043.04 909.31 1048.37 C 916.834 1046.69 925.059 1044.6 932.671 1044.05 L 933.732 1044.64 C 943.52 1050.17 951.454 1060.98 963.731 1057.87 C 971.685 1055.85 980.841 1045.42 985.491 1038.87 L 988.251 1041.4 L 988.778 1043.41 L 990.508 1041.8 C 993.93 1041.57 995.199 1041.8 998.01 1039.82 C 996.881 1036.8 996.949 1034.25 996.643 1030.96 C 996.896 1029.49 997.412 1027.88 997.816 1026.42 C 1000.44 1023.1 1001.89 1023.06 1006.12 1021.62 C 1005.75 1013.75 1007.51 1011.29 1014.7 1008.53 C 1025.46 1007.51 1049.31 1005.15 1059.03 1003.02 C 1067.96 1001.71 1077.13 1000.8 1086.12 999.801 L 1086.5 998.47 C 1086.75 996.931 1087.6 994.055 1088.03 992.429 C 1095.16 974.631 1101.19 955.551 1108.4 937.295 C 1105.69 933.57 1102.85 930.695 1102.85 926.517 C 1115.96 927.856 1115.06 922.32 1119.36 910.643 C 1121.19 904.074 1126.39 891.178 1128.91 884.45 L 1134.18 871.323 C 1136.43 866.113 1137.91 862.217 1139.75 856.902 L 1148.07 837.055 C 1151.36 831.521 1152.76 826.82 1154.62 820.779 L 1168.25 816.69 C 1132.55 779.5 1090.24 744.959 1055.71 707.469 C 1038.08 701.06 978.304 706.837 958.709 710.529 C 944.842 712.792 934.985 714.583 924.197 724.283 C 909.446 720.013 894.743 715.581 880.091 710.986 C 878.794 710.829 872.333 708.899 870.781 708.465 C 843.117 700.875 819.996 692.882 793.24 682.278 C 778.234 676.33 760.356 668.066 745.252 663.263 C 740.111 661.222 734.985 659.144 729.874 657.031 C 724.496 648.99 720.254 641.334 714.36 632.781 C 708.155 631.197 703.271 630.773 696.675 628.677 C 687.829 625.866 678.743 622.188 669.761 620.251 C 656.625 624.375 643.951 629.169 630.976 633.715 C 629.896 633.444 628.816 633.173 627.736 632.901 C 626.774 631.198 626.182 630.538 624.968 629.011 C 598.268 595.429 559.789 589.548 526.431 617.845 L 520.884 617.462 z"/>
<path transform="translate(0,0)" fill="rgb(2,164,166)" d="M 526.431 617.845 C 559.789 589.548 598.268 595.429 624.968 629.011 C 626.182 630.538 626.774 631.198 627.736 632.901 C 628.816 633.173 629.896 633.444 630.976 633.715 C 643.951 629.169 656.625 624.375 669.761 620.251 C 678.743 622.188 687.829 625.866 696.675 628.677 C 703.271 630.773 708.155 631.197 714.36 632.781 C 720.254 641.334 724.496 648.99 729.874 657.031 C 734.985 659.144 740.111 661.222 745.252 663.263 C 760.356 668.066 778.234 676.33 793.24 682.278 C 819.996 692.882 843.117 700.875 870.781 708.465 C 872.333 708.899 878.794 710.829 880.091 710.986 C 894.743 715.581 909.446 720.013 924.197 724.283 C 934.985 714.583 944.842 712.792 958.709 710.529 C 978.304 706.837 1038.08 701.06 1055.71 707.469 C 1090.24 744.959 1132.55 779.5 1168.25 816.69 L 1154.62 820.779 C 1152.76 826.82 1151.36 831.521 1148.07 837.055 L 1139.75 856.902 C 1137.91 862.217 1136.43 866.113 1134.18 871.323 L 1128.91 884.45 C 1126.39 891.178 1121.19 904.074 1119.36 910.643 C 1115.06 922.32 1115.96 927.856 1102.85 926.517 C 1102.85 930.695 1105.69 933.57 1108.4 937.295 C 1101.19 955.551 1095.16 974.631 1088.03 992.429 C 1087.6 994.055 1086.75 996.931 1086.5 998.47 L 1086.12 999.801 C 1077.13 1000.8 1067.96 1001.71 1059.03 1003.02 C 1049.31 1005.15 1025.46 1007.51 1014.7 1008.53 C 1007.51 1011.29 1005.75 1013.75 1006.12 1021.62 C 1001.89 1023.06 1000.44 1023.1 997.816 1026.42 C 997.412 1027.88 996.896 1029.49 996.643 1030.96 C 996.949 1034.25 996.881 1036.8 998.01 1039.82 C 995.199 1041.8 993.93 1041.57 990.508 1041.8 L 988.778 1043.41 L 988.251 1041.4 L 985.491 1038.87 C 980.841 1045.42 971.685 1055.85 963.731 1057.87 C 951.454 1060.98 943.52 1050.17 933.732 1044.64 L 932.671 1044.05 C 925.059 1044.6 916.834 1046.69 909.31 1048.37 C 904.817 1043.04 903.483 1040.31 900.133 1034.21 L 897.962 1031.56 C 899.641 1028.2 902.75 1024.75 905.172 1021.77 C 895.934 1022.58 874.805 1026.07 867.958 1026.17 C 848.205 1029.27 828.895 1031.24 809.086 1033.63 C 802.258 1034.46 787.497 1035.7 781.139 1037.14 C 769.123 1039.39 756.284 1040.48 744.09 1041.67 C 739.756 1039.11 739.68 1040.38 734.22 1036.11 C 721 1038.34 711.105 1035.62 697.93 1034.18 L 697.126 1032.93 C 690.37 1028.13 671.611 1014.49 665.25 1011.48 C 662.761 1009.5 660.729 1007.03 658.586 1004.66 C 656.513 1001.86 647.281 994.296 644.354 991.825 C 641.466 988.553 630.959 979.642 627.209 976.309 C 623.615 974.026 614.185 964.787 608.964 960.849 L 607.518 961.266 C 603.952 948.98 601.634 917.744 599.689 903.149 C 588.925 900.82 543.758 890.456 535.868 890.501 C 533.885 886.626 533.404 885.978 530.653 882.555 C 528.664 878.34 525.098 872.754 522.633 868.626 L 512.374 851.248 C 511.014 848.308 509.273 845.415 507.666 842.58 C 503.422 834.188 497.513 825.645 492.241 817.788 C 482.847 803.239 457.232 776.222 445.13 763.372 C 436.845 756.542 434.744 747.959 434.168 737.854 C 434.234 734.326 433.563 732.742 432.75 729.275 L 426.647 717.615 C 433.963 700.309 453.24 675.289 468.347 663.771 C 469.12 658.312 468.877 650.126 469.42 644.082 C 472.355 611.414 493.349 612.787 520.884 617.462 L 526.431 617.845 z M 834.952 871.913 C 840.355 869.427 845.373 868.023 851.044 866.28 C 838.183 855.807 822.422 853.859 811.39 868.103 C 806.598 874.238 804.634 882.119 805.987 889.786 C 811.504 920.115 866.285 917.891 855.704 870.951 C 848.571 871.485 842.107 871.735 834.952 871.913 z M 1041.54 957.816 C 1064.96 951.548 1076.74 931.561 1066.15 908.655 C 1061.21 898.17 1052.27 890.104 1041.33 886.264 C 1028.87 881.825 1020.8 884.274 1009.67 889.438 C 1035.94 906.643 1052.74 923.205 1041.54 957.816 z M 836.917 830.809 C 847.148 825.542 856.976 820.23 860.377 808.401 C 866.52 787.038 848.842 768.383 829.633 763.546 C 824.134 762.193 818.454 761.724 812.808 762.156 C 764.315 773.516 795.36 839.611 836.917 830.809 z"/>
<path transform="translate(0,0)" fill="rgb(97,254,1)" fill-opacity="0.988235" d="M 855.704 870.951 C 866.285 917.891 811.504 920.115 805.987 889.786 C 804.634 882.119 806.598 874.238 811.39 868.103 C 822.422 853.859 838.183 855.807 851.044 866.28 C 845.373 868.023 840.355 869.427 834.952 871.913 C 842.107 871.735 848.571 871.485 855.704 870.951 z"/>
<path transform="translate(0,0)" fill="rgb(97,254,1)" fill-opacity="0.988235" d="M 1009.67 889.438 C 1020.8 884.274 1028.87 881.825 1041.33 886.264 C 1052.27 890.104 1061.21 898.17 1066.15 908.655 C 1076.74 931.561 1064.96 951.548 1041.54 957.816 C 1052.74 923.205 1035.94 906.643 1009.67 889.438 z"/>
<path transform="translate(0,0)" fill="rgb(239,224,187)" d="M 434.168 737.854 C 440.903 735.52 490.515 751.386 500.463 753.731 C 563.062 768.485 629.399 830.033 694.034 826.943 C 719.113 829.795 731.408 840.91 751.199 856.332 C 748.604 870.421 746.072 885.873 742.947 899.738 C 721.388 901.326 697.571 905.073 675.654 907.291 C 674.579 923.686 673.034 941.792 672.721 958.083 C 693.714 983.7 714.217 1009.71 734.22 1036.11 C 721 1038.34 711.105 1035.62 697.93 1034.18 L 697.126 1032.93 C 690.37 1028.13 671.611 1014.49 665.25 1011.48 C 662.761 1009.5 660.729 1007.03 658.586 1004.66 C 656.513 1001.86 647.281 994.296 644.354 991.825 C 641.466 988.553 630.959 979.642 627.209 976.309 C 623.615 974.026 614.185 964.787 608.964 960.849 L 607.518 961.266 C 603.952 948.98 601.634 917.744 599.689 903.149 C 588.925 900.82 543.758 890.456 535.868 890.501 C 533.885 886.626 533.404 885.978 530.653 882.555 C 528.664 878.34 525.098 872.754 522.633 868.626 L 512.374 851.248 C 511.014 848.308 509.273 845.415 507.666 842.58 C 503.422 834.188 497.513 825.645 492.241 817.788 C 482.847 803.239 457.232 776.222 445.13 763.372 C 436.845 756.542 434.744 747.959 434.168 737.854 z"/>
<path transform="translate(0,0)" fill="rgb(187,159,119)" d="M 445.13 763.372 C 544.435 785.375 577.284 805.846 657.622 867.222 C 626.141 854.237 597.273 834.47 566.155 820.662 C 549.134 813.11 528.861 801.171 510.278 809.585 C 505.796 811.54 496.141 816.954 492.241 817.788 C 482.847 803.239 457.232 776.222 445.13 763.372 z"/>
<path transform="translate(0,0)" fill="rgb(163,221,208)" d="M 522.633 868.626 C 537.303 868.076 575.168 880.625 590.819 884.706 C 620.206 892.368 622.571 937.879 626.604 961.615 C 626.937 963.299 626.225 966.376 625.709 968.053 C 622.102 965.549 618.579 944.274 615.492 936.391 C 615.433 945.053 614.304 953.892 614.769 962.316 C 614.771 962.358 625.918 972.788 627.319 974.672 L 627.209 976.309 C 623.615 974.026 614.185 964.787 608.964 960.849 L 607.518 961.266 C 603.952 948.98 601.634 917.744 599.689 903.149 C 588.925 900.82 543.758 890.456 535.868 890.501 C 533.885 886.626 533.404 885.978 530.653 882.555 C 528.664 878.34 525.098 872.754 522.633 868.626 z"/>
<path transform="translate(0,0)" fill="rgb(43,9,60)" d="M 526.431 617.845 C 559.789 589.548 598.268 595.429 624.968 629.011 C 626.182 630.538 626.774 631.198 627.736 632.901 C 628.816 633.173 629.896 633.444 630.976 633.715 C 643.951 629.169 656.625 624.375 669.761 620.251 C 678.743 622.188 687.829 625.866 696.675 628.677 C 703.271 630.773 708.155 631.197 714.36 632.781 C 720.254 641.334 724.496 648.99 729.874 657.031 C 734.985 659.144 740.111 661.222 745.252 663.263 L 744.166 663.19 C 739.53 662.846 736.752 662.43 732.409 660.71 L 732.225 660.977 C 734.434 663.795 734.491 662.68 734.215 664.993 C 742.16 676.071 743.428 679.671 744.054 693.482 L 744.136 695.102 L 744.175 696.074 C 748.42 696.69 768.333 700.526 769.785 700.384 C 782.912 704.324 796.306 707.316 809.862 709.337 C 824.781 713.984 838.987 715.957 853.871 721.371 C 867.647 726.382 876.073 762.642 865.244 767.718 C 855.207 765.908 855.292 744.302 851.022 734.42 C 837.259 731.986 821.241 728.72 807.595 726.798 C 796.112 724.567 781.032 721.435 769.685 720.541 C 763.319 718.084 750.278 716.548 743.078 715.52 C 735.518 749.581 719.586 782.717 677.194 778.235 C 636.559 773.939 605.3 729.824 596.539 692.997 C 594.957 686.349 596.455 671.544 592.478 666.492 C 575.179 655.192 577.008 672.191 570.865 682.146 C 538.723 734.231 472.4 735.814 468.347 663.771 C 469.12 658.312 468.877 650.126 469.42 644.082 C 472.355 611.414 493.349 612.787 520.884 617.462 L 526.431 617.845 z"/>
<path transform="translate(0,0)" fill="rgb(228,227,231)" d="M 520.331 620.537 C 528.379 622.315 536.512 624.227 544.641 625.524 C 528.407 652.238 508.128 679.01 491.346 706.824 C 484.454 700.195 481.417 694.842 476.744 686.622 C 488.346 667.342 507.186 638.774 520.331 620.537 z"/>
<path transform="translate(0,0)" fill="rgb(2,164,166)" d="M 526.431 617.845 C 559.789 589.548 598.268 595.429 624.968 629.011 C 626.182 630.538 626.774 631.198 627.736 632.901 L 624.224 635.421 C 603.969 631.897 575.093 624.777 555.214 623.015 C 550.001 623.103 548.516 622.574 544.641 625.524 C 536.512 624.227 528.379 622.315 520.331 620.537 L 520.884 617.462 L 526.431 617.845 z"/>
<path transform="translate(0,0)" fill="rgb(45,27,87)" d="M 526.431 617.845 C 536.102 619.923 545.56 620.597 555.214 623.015 C 550.001 623.103 548.516 622.574 544.641 625.524 C 536.512 624.227 528.379 622.315 520.331 620.537 L 520.884 617.462 L 526.431 617.845 z"/>
<path transform="translate(0,0)" fill="rgb(2,164,166)" d="M 669.761 620.251 C 678.743 622.188 687.829 625.866 696.675 628.677 C 703.271 630.773 708.155 631.197 714.36 632.781 C 720.254 641.334 724.496 648.99 729.874 657.031 C 734.985 659.144 740.111 661.222 745.252 663.263 L 744.166 663.19 C 739.53 662.846 736.752 662.43 732.409 660.71 L 732.225 660.977 C 734.434 663.795 734.491 662.68 734.215 664.993 C 733.138 664.595 729.272 661.673 727.543 660.856 C 722.931 658.677 718.122 657.145 713.53 654.993 C 703.029 650.072 694.432 643.475 683.03 640.636 C 671.401 637.74 660.396 641.008 649.223 640.574 C 643.806 640.363 630.044 636.802 624.224 635.421 L 627.736 632.901 C 628.816 633.173 629.896 633.444 630.976 633.715 C 643.951 629.169 656.625 624.375 669.761 620.251 z"/>
<path transform="translate(0,0)" fill="rgb(228,227,231)" d="M 658.183 646.704 C 666.126 647.686 680.577 650.94 688.884 652.577 C 670.423 680.39 651.661 707.168 633.244 735.42 L 628.299 742.823 C 621.442 734.672 616.183 726.715 610.688 717.645 L 658.183 646.704 z"/>
<path transform="translate(0,0)" fill="rgb(228,227,231)" d="M 705.29 655.492 C 708.333 655.835 712.667 656.022 714.303 658.648 C 709.084 669.218 699.14 682.958 692.546 693.072 C 678.139 715.168 661.485 737.613 648.062 760.213 C 645.648 759.516 641.077 756.11 638.722 754.534 C 660.537 721.27 682.727 688.253 705.29 655.492 z"/>
<path transform="translate(0,0)" fill="rgb(228,227,231)" d="M 555.157 629.516 C 558.176 630.996 560.607 631.956 561.658 635.075 C 557.099 643.731 547.786 657.078 542.179 665.623 L 509.609 715.607 C 505.488 714.113 504.622 714.56 502.19 711.716 C 503.652 707.695 516.381 688.927 519.491 684.187 L 555.157 629.516 z"/>
<path transform="translate(0,0)" fill="rgb(2,164,166)" d="M 570.475 633.634 L 614.763 642.328 C 611.069 644.258 607.989 646.469 604.547 648.801 C 602.182 651.705 599.532 655.614 597.293 658.716 C 589.642 654.628 587.047 654.754 578.479 653.761 C 577.883 644.229 575.525 641.561 570.475 633.634 z"/>
<path transform="translate(0,0)" fill="rgb(98,37,129)" d="M 675.654 907.291 C 697.571 905.073 721.388 901.326 742.947 899.738 C 757.878 910.738 783.267 930.718 797.706 939.896 C 819.623 939.001 842.318 937.722 864.185 937.874 C 891.605 956.359 896.698 957.863 929.783 958.606 C 927.471 969.058 925.783 976.977 925.925 987.703 C 924.938 994.599 925.247 1000.14 925.399 1007.08 C 919.753 1011.94 912.011 1019.1 905.172 1021.77 C 895.934 1022.58 874.805 1026.07 867.958 1026.17 C 848.205 1029.27 828.895 1031.24 809.086 1033.63 C 802.258 1034.46 787.497 1035.7 781.139 1037.14 C 769.123 1039.39 756.284 1040.48 744.09 1041.67 C 739.756 1039.11 739.68 1040.38 734.22 1036.11 C 714.217 1009.71 693.714 983.7 672.721 958.083 C 673.034 941.792 674.579 923.686 675.654 907.291 z"/>
<path transform="translate(0,0)" fill="rgb(2,164,166)" d="M 726.05 927.883 C 738.333 929.442 779.914 935.188 787.991 941.106 C 806.398 954.594 863.561 1006.82 867.958 1026.17 C 848.205 1029.27 828.895 1031.24 809.086 1033.63 C 802.258 1034.46 787.497 1035.7 781.139 1037.14 C 777.7 1034.04 774.178 1030.81 770.955 1027.49 C 761.785 1017.97 753.405 1007.72 745.901 996.837 C 726.29 968.799 725.714 960.611 726.05 927.883 z"/>
<path transform="translate(0,0)" fill="rgb(249,112,3)" d="M 958.709 710.529 C 978.304 706.837 1038.08 701.06 1055.71 707.469 C 1090.24 744.959 1132.55 779.5 1168.25 816.69 L 1154.62 820.779 C 1149.24 818.974 1129.13 807.465 1123.15 804.151 C 1097.83 790.009 1072.6 775.691 1047.48 761.198 C 1031.52 752.09 1015.48 743.146 999.342 734.368 C 986.05 727.116 970.747 719.39 958.709 710.529 z"/>
<path transform="translate(0,0)" fill="rgb(98,37,129)" d="M 924.197 724.283 C 934.985 714.583 944.842 712.792 958.709 710.529 C 970.747 719.39 986.05 727.116 999.342 734.368 C 1015.48 743.146 1031.52 752.09 1047.48 761.198 C 1072.6 775.691 1097.83 790.009 1123.15 804.151 C 1129.13 807.465 1149.24 818.974 1154.62 820.779 C 1152.76 826.82 1151.36 831.521 1148.07 837.055 C 1117.77 820.769 1068.35 812.522 1035.18 800.402 C 1031.16 798.936 1026.06 797.738 1022.32 799.912 C 1010.14 785.221 1001.44 772.379 990.952 756.998 C 978.854 739.254 944.969 731.02 924.197 724.283 z"/>
<path transform="translate(0,0)" fill="rgb(247,5,3)" d="M 1022.32 799.912 C 1026.06 797.738 1031.16 798.936 1035.18 800.402 C 1068.35 812.522 1117.77 820.769 1148.07 837.055 L 1139.75 856.902 C 1126.73 855.381 1073.33 855.53 1058.38 856.44 C 1045.65 838.058 1033.62 819.202 1022.32 799.912 z"/>
<path transform="translate(0,0)" fill="rgb(37,57,119)" d="M 851.044 866.28 C 855.458 865.91 874.984 862.186 878.8 860.596 L 879.287 859.15 C 881.391 861.094 881.94 861.278 885.989 860.779 C 910.146 857.798 931.66 862.497 955.381 867.002 C 968.093 871 980.548 875.774 992.676 881.296 C 995.77 882.686 1007.98 888.847 1009.67 889.438 C 1035.94 906.643 1052.74 923.205 1041.54 957.816 C 1039.6 962.833 1037.59 967.824 1035.51 972.79 C 1034.29 975.141 1032.95 977.396 1032.15 979.883 L 1016.31 1004.78 C 1019.8 1006.1 1038.67 998.014 1044.58 996.35 C 1058.68 992.303 1073.43 990.973 1088.03 992.429 C 1087.6 994.055 1086.75 996.931 1086.5 998.47 L 1086.12 999.801 C 1077.13 1000.8 1067.96 1001.71 1059.03 1003.02 C 1049.31 1005.15 1025.46 1007.51 1014.7 1008.53 C 1007.51 1011.29 1005.75 1013.75 1006.12 1021.62 C 1001.89 1023.06 1000.44 1023.1 997.816 1026.42 C 997.412 1027.88 996.896 1029.49 996.643 1030.96 C 996.949 1034.25 996.881 1036.8 998.01 1039.82 C 995.199 1041.8 993.93 1041.57 990.508 1041.8 L 988.778 1043.41 L 988.251 1041.4 L 985.491 1038.87 C 988.565 1025.36 998.482 1015.97 1006.49 1004.45 C 1018.38 988.596 1039.92 953.436 1037.09 932.562 C 1029.4 875.831 897.394 865.758 855.704 870.951 C 848.571 871.485 842.107 871.735 834.952 871.913 C 840.355 869.427 845.373 868.023 851.044 866.28 z"/>
<path transform="translate(0,0)" fill="rgb(45,27,87)" d="M 988.251 1041.4 C 989.059 1036.97 990.711 1031.5 995.226 1029.57 L 996.643 1030.96 C 996.949 1034.25 996.881 1036.8 998.01 1039.82 C 995.199 1041.8 993.93 1041.57 990.508 1041.8 L 988.778 1043.41 L 988.251 1041.4 z"/>
<path transform="translate(0,0)" fill="rgb(77,111,187)" d="M 1059.03 1003.02 C 1065.86 997.312 1077.95 997.69 1086.5 998.47 L 1086.12 999.801 C 1077.13 1000.8 1067.96 1001.71 1059.03 1003.02 z"/>
<path transform="translate(0,0)" fill="rgb(98,37,129)" d="M 1058.38 856.44 C 1073.33 855.53 1126.73 855.381 1139.75 856.902 C 1137.91 862.217 1136.43 866.113 1134.18 871.323 L 1128.91 884.45 C 1126.39 891.178 1121.19 904.074 1119.36 910.643 C 1115.06 922.32 1115.96 927.856 1102.85 926.517 C 1099.09 922.706 1089.65 906.055 1086.17 900.391 C 1075.83 887.021 1066.92 871.081 1058.38 856.44 z"/>
<path transform="translate(0,0)" fill="rgb(43,9,60)" d="M 1090.97 898.465 C 1098.51 902.013 1111.76 908.598 1119.36 910.643 C 1115.06 922.32 1115.96 927.856 1102.85 926.517 C 1099.09 922.706 1089.65 906.055 1086.17 900.391 L 1090.97 898.465 z"/>
<path transform="translate(0,0)" fill="rgb(249,112,3)" d="M 1128.91 884.45 C 1126.39 891.178 1121.19 904.074 1119.36 910.643 C 1111.76 908.598 1098.51 902.013 1090.97 898.465 C 1102.69 891.554 1116.28 889.811 1128.91 884.45 z"/>
<path transform="translate(0,0)" fill="rgb(98,37,129)" d="M 432.75 729.275 C 462.31 727.875 513.539 746.989 541.123 758.519 C 574.467 772.457 607.265 792.931 640.643 807.902 C 653.867 813.833 684.737 820.223 694.034 826.943 C 629.399 830.033 563.062 768.485 500.463 753.731 C 490.515 751.386 440.903 735.52 434.168 737.854 C 434.234 734.326 433.563 732.742 432.75 729.275 z"/>
<path transform="translate(0,0)" fill="rgb(248,2,235)" d="M 879.287 859.15 C 882.823 821.486 924.157 815.658 945.791 843.018 C 952.317 851.272 953.374 857.155 955.381 867.002 C 931.66 862.497 910.146 857.798 885.989 860.779 C 881.94 861.278 881.391 861.094 879.287 859.15 z"/>
<path transform="translate(0,0)" fill="rgb(45,27,87)" d="M 933.613 947.518 C 945.755 931.305 954.622 925.461 973.596 918.349 C 944.611 942.47 934.775 958.404 930.659 997.704 C 929.604 999.834 929.542 1000.13 928.031 1001.93 C 925.896 999.577 926.252 991.898 925.925 987.703 C 925.783 976.977 927.471 969.058 929.783 958.606 C 896.698 957.863 891.605 956.359 864.185 937.874 L 853.616 925.53 C 885.74 941.125 896.578 946.157 933.613 947.518 z"/>
<path transform="translate(0,0)" fill="rgb(249,112,3)" d="M 769.785 700.384 C 774.868 696.445 777.46 694.593 783.765 692.887 C 795.171 695.949 802.56 699.215 809.862 709.337 C 796.306 707.316 782.912 704.324 769.785 700.384 z"/>
<path transform="translate(0,0)" fill="rgb(249,112,3)" d="M 769.685 720.541 C 781.032 721.435 796.112 724.567 807.595 726.798 C 793.725 740.727 780.54 733.739 769.685 720.541 z"/>
<path transform="translate(0,0)" fill="rgb(37,57,119)" d="M 925.399 1007.08 C 925.247 1000.14 924.938 994.599 925.925 987.703 C 926.252 991.898 925.896 999.577 928.031 1001.93 C 929.542 1000.13 929.604 999.834 930.659 997.704 C 930.1 1002.03 929.58 1007.02 928.787 1011.25 C 918.642 1024.7 906.106 1026.46 900.133 1034.21 L 897.962 1031.56 C 899.641 1028.2 902.75 1024.75 905.172 1021.77 C 912.011 1019.1 919.753 1011.94 925.399 1007.08 z"/>
<path transform="translate(0,0)" fill="url(#Gradient2)" d="M 1035.51 972.79 C 1044.25 973.292 1060.4 975.009 1068.85 977.252 C 1065.45 978.936 1065.56 978.883 1061.79 979.422 C 1051.17 979.043 1042.69 979.389 1032.15 979.883 C 1032.95 977.396 1034.29 975.141 1035.51 972.79 z"/>
<path transform="translate(0,0)" fill="rgb(6,87,118)" d="M 1068.85 977.252 C 1075.23 977.882 1081.5 979.32 1087.52 981.531 C 1079.32 980.881 1069.86 980.368 1061.79 979.422 C 1065.56 978.883 1065.45 978.936 1068.85 977.252 z"/>
<path transform="translate(0,0)" fill="rgb(97,254,1)" fill-opacity="0.988235" d="M 812.808 762.156 C 818.454 761.724 824.134 762.193 829.633 763.546 C 848.842 768.383 866.52 787.038 860.377 808.401 C 856.976 820.23 847.148 825.542 836.917 830.809 C 795.36 839.611 764.315 773.516 812.808 762.156 z"/>
<path transform="translate(0,0)" fill="rgb(248,2,235)" d="M 911.404 743.187 C 950.689 741.68 979.034 786.31 936.643 805.443 C 902.041 810.166 866.232 757.986 911.404 743.187 z"/>
<path transform="translate(0,0)" fill="rgb(248,2,235)" d="M 988.944 831.081 C 998.288 830.91 1007.03 835.837 1010.56 844.733 C 1012.29 849.069 1012.17 853.925 1010.23 858.168 C 1007.5 864.056 1002.6 867.071 996.738 869.154 C 977.004 868.549 963.256 843.166 988.944 831.081 z"/>
<path transform="translate(0,0)" fill="rgb(98,37,129)" d="M 1156.13 514.674 C 1165.03 514.228 1173.58 511.364 1182.11 510.718 C 1197.62 509.543 1213.77 510.277 1229.3 510.943 C 1249.79 511.314 1276.51 517.732 1295.03 518.464 C 1278.38 552.575 1278.28 576.419 1308.64 602.865 C 1308.48 603.187 1308.33 603.509 1308.18 603.83 C 1288.6 650.14 1289.78 683.555 1251.16 719.723 C 1243.03 717.425 1235.7 715.346 1227.4 713.595 C 1193.24 704.189 1144.85 695.095 1109.31 690.677 C 1010.09 677.146 975.322 681.199 880.091 710.986 C 878.794 710.829 872.333 708.899 870.781 708.465 C 877.075 696.398 883.659 684.485 890.528 672.736 C 909.463 640.025 932.814 604.53 968.391 589.449 C 977.222 586.504 997.535 575.957 1007.05 571.551 C 1027.38 562.36 1047.79 553.353 1068.29 544.531 C 1093.15 532.78 1129.74 522.084 1156.13 514.674 z"/>
<path transform="translate(0,0)" fill="rgb(252,227,37)" d="M 1109.31 690.677 C 1113.33 669.724 1117.32 654.979 1136.32 641.934 C 1149.8 632.711 1166.41 629.291 1182.44 632.442 C 1198.27 635.399 1212.28 644.527 1221.38 657.816 C 1232.28 673.936 1234.99 695.552 1227.4 713.595 C 1193.24 704.189 1144.85 695.095 1109.31 690.677 z"/>
<path transform="translate(0,0)" fill="rgb(252,227,37)" d="M 968.391 589.449 C 977.521 608.132 982.493 623.755 975.153 644.433 C 970.166 658.641 959.687 670.254 946.066 676.673 C 932.55 683.021 917.053 683.683 903.045 678.511 C 898.84 676.948 894.495 674.801 890.528 672.736 C 909.463 640.025 932.814 604.53 968.391 589.449 z"/>
<path transform="translate(0,0)" fill="rgb(252,227,37)" d="M 1068.29 544.531 C 1093.15 532.78 1129.74 522.084 1156.13 514.674 C 1182.8 590.53 1086.85 605.398 1070.91 554.224 C 1069.93 551.022 1069.06 547.79 1068.29 544.531 z"/>
<path transform="translate(0,0)" fill="rgb(187,159,119)" d="M 1201.98 813.403 C 1213.04 815.013 1224.08 816.744 1235.1 818.595 C 1246.54 822.441 1257.95 826.392 1269.32 830.446 C 1280.79 837.786 1292.68 845.617 1304.36 852.517 L 1316.37 865.071 C 1314.56 871.751 1313.32 877.22 1311.96 884.013 C 1310.97 888.412 1310.13 892.781 1308.6 897.015 L 1305.5 910.574 L 1302.65 924.857 C 1299.03 940.147 1295.45 956.023 1293.2 971.577 C 1292.25 976.892 1290.44 985.571 1289.96 990.676 L 1287.17 1014.57 C 1275.51 1002.26 1270.93 998.461 1256.97 988.869 C 1248.64 1008.8 1239.68 1029.33 1231.73 1049.31 C 1228.7 1044.23 1227.7 1042.36 1225.42 1036.84 C 1216.4 1040.49 1213.19 1043.23 1206.62 1050.53 C 1203.27 1054.79 1201.5 1057.83 1199.55 1062.97 C 1198.16 1066.59 1197.53 1067.06 1195.07 1069.91 C 1193.08 1078.41 1186.3 1112.99 1189.07 1119.8 C 1180.38 1120.35 1170.58 1121.22 1161.97 1120.9 C 1159.5 1082.54 1151.17 1031.79 1146.75 992.458 C 1128.19 993.9 1104.96 997.438 1086.12 999.801 L 1086.5 998.47 C 1086.75 996.931 1087.6 994.055 1088.03 992.429 C 1095.16 974.631 1101.19 955.551 1108.4 937.295 C 1105.69 933.57 1102.85 930.695 1102.85 926.517 C 1115.96 927.856 1115.06 922.32 1119.36 910.643 C 1121.19 904.074 1126.39 891.178 1128.91 884.45 L 1134.18 871.323 C 1136.43 866.113 1137.91 862.217 1139.75 856.902 L 1148.07 837.055 C 1151.36 831.521 1152.76 826.82 1154.62 820.779 L 1168.25 816.69 C 1177.64 815.264 1192.17 814.332 1201.98 813.403 z"/>
<path transform="translate(0,0)" fill="rgb(239,224,187)" d="M 1134.18 871.323 C 1149.79 874.328 1208.36 907.574 1222.43 918.021 C 1218.47 946.927 1213.21 975.638 1206.64 1004.07 L 1215.94 1009.02 C 1220.53 1018.73 1222.55 1026.52 1225.42 1036.84 C 1216.4 1040.49 1213.19 1043.23 1206.62 1050.53 C 1203.27 1054.79 1201.5 1057.83 1199.55 1062.97 C 1198.16 1066.59 1197.53 1067.06 1195.07 1069.91 C 1193.08 1078.41 1186.3 1112.99 1189.07 1119.8 C 1180.38 1120.35 1170.58 1121.22 1161.97 1120.9 C 1159.5 1082.54 1151.17 1031.79 1146.75 992.458 C 1128.19 993.9 1104.96 997.438 1086.12 999.801 L 1086.5 998.47 C 1086.75 996.931 1087.6 994.055 1088.03 992.429 C 1095.16 974.631 1101.19 955.551 1108.4 937.295 C 1105.69 933.57 1102.85 930.695 1102.85 926.517 C 1115.96 927.856 1115.06 922.32 1119.36 910.643 C 1121.19 904.074 1126.39 891.178 1128.91 884.45 L 1134.18 871.323 z"/>
<path transform="translate(0,0)" fill="rgb(173,97,28)" d="M 1206.64 1004.07 L 1215.94 1009.02 C 1220.53 1018.73 1222.55 1026.52 1225.42 1036.84 C 1216.4 1040.49 1213.19 1043.23 1206.62 1050.53 L 1198.23 1045.15 C 1201.28 1031.51 1204.08 1017.81 1206.64 1004.07 z"/>
<path transform="translate(0,0)" fill="rgb(187,159,119)" d="M 1198.23 1045.15 L 1206.62 1050.53 C 1203.27 1054.79 1201.5 1057.83 1199.55 1062.97 C 1198.16 1066.59 1197.53 1067.06 1195.07 1069.91 C 1196.37 1061.69 1197.42 1053.43 1198.23 1045.15 z"/>
<path transform="translate(0,0)" fill="rgb(98,37,129)" d="M 1426.34 815.988 C 1441.33 819.989 1492.01 858.247 1504.85 870.192 C 1531.23 889.964 1551.3 923.876 1556.06 956.864 C 1507.46 943.247 1459.04 928.997 1410.81 914.119 C 1378.37 904.305 1343.9 894.636 1311.96 884.013 C 1313.32 877.22 1314.56 871.751 1316.37 865.071 L 1304.36 852.517 C 1316.23 846.57 1346.86 839.113 1361.23 835.147 C 1382.99 828.95 1404.69 822.564 1426.34 815.988 z"/>
<path transform="translate(0,0)" fill="rgb(249,112,3)" d="M 1426.34 815.988 C 1441.33 819.989 1492.01 858.247 1504.85 870.192 C 1477.34 869.601 1330.72 871.236 1316.37 865.071 L 1304.36 852.517 C 1316.23 846.57 1346.86 839.113 1361.23 835.147 C 1382.99 828.95 1404.69 822.564 1426.34 815.988 z"/>
<path transform="translate(0,0)" fill="rgb(247,5,3)" d="M 1311.96 884.013 C 1343.9 894.636 1378.37 904.305 1410.81 914.119 C 1459.04 928.997 1507.46 943.247 1556.06 956.864 C 1540.42 977.09 1521.03 983.253 1496.01 986.576 C 1488.23 987.59 1480.4 988.217 1472.56 988.455 C 1457.87 990.819 1412.49 990.22 1398.04 987.344 C 1380.31 985.532 1367.04 983.792 1349.59 980.242 C 1334.71 980.252 1308.85 974.396 1293.2 971.577 C 1295.45 956.023 1299.03 940.147 1302.65 924.857 L 1305.5 910.574 L 1308.6 897.015 C 1310.13 892.781 1310.97 888.412 1311.96 884.013 z"/>
<path transform="translate(0,0)" fill="rgb(98,37,129)" d="M 1308.6 897.015 C 1321.6 903.459 1334.11 911.419 1346.83 918.314 C 1387.97 940.604 1430.72 968.37 1472.56 988.455 C 1457.87 990.819 1412.49 990.22 1398.04 987.344 C 1380.31 985.532 1367.04 983.792 1349.59 980.242 C 1334.71 980.252 1308.85 974.396 1293.2 971.577 C 1295.45 956.023 1299.03 940.147 1302.65 924.857 L 1305.5 910.574 L 1308.6 897.015 z"/>
<path transform="translate(0,0)" fill="rgb(249,112,3)" d="M 1305.5 910.574 C 1319.15 920.519 1333.97 933.048 1347.13 943.832 C 1363.92 957.586 1382.46 972.412 1398.04 987.344 C 1380.31 985.532 1367.04 983.792 1349.59 980.242 C 1334.71 980.252 1308.85 974.396 1293.2 971.577 C 1295.45 956.023 1299.03 940.147 1302.65 924.857 L 1305.5 910.574 z"/>
<path transform="translate(0,0)" fill="rgb(98,37,129)" d="M 1293.2 971.577 C 1295.45 956.023 1299.03 940.147 1302.65 924.857 C 1313.25 938.024 1338.12 970.31 1349.59 980.242 C 1334.71 980.252 1308.85 974.396 1293.2 971.577 z"/>
<path transform="translate(0,0)" fill="rgb(98,37,129)" d="M 1055.71 707.469 C 1088.93 707.565 1125.48 712.692 1157.89 719.565 C 1182.22 722.102 1230.15 735.335 1254.82 742.293 C 1248.37 768.252 1242.4 792.815 1235.1 818.595 C 1224.08 816.744 1213.04 815.013 1201.98 813.403 C 1192.17 814.332 1177.64 815.264 1168.25 816.69 C 1132.55 779.5 1090.24 744.959 1055.71 707.469 z"/>
<path transform="translate(0,0)" fill="rgb(249,112,3)" d="M 1157.89 719.565 C 1182.22 722.102 1230.15 735.335 1254.82 742.293 C 1248.37 768.252 1242.4 792.815 1235.1 818.595 C 1224.08 816.744 1213.04 815.013 1201.98 813.403 C 1194.7 802.951 1186.73 783.425 1181.34 771.37 L 1157.89 719.565 z"/>
<path transform="translate(0,0)" fill="rgb(98,37,129)" d="M 1254.82 742.293 C 1280.19 750.05 1313.64 761.973 1337.91 772.804 C 1359.33 781.637 1409.53 803.446 1426.34 815.988 C 1404.69 822.564 1382.99 828.95 1361.23 835.147 C 1346.86 839.113 1316.23 846.57 1304.36 852.517 C 1292.68 845.617 1280.79 837.786 1269.32 830.446 C 1257.95 826.392 1246.54 822.441 1235.1 818.595 C 1242.4 792.815 1248.37 768.252 1254.82 742.293 z"/>
<path transform="translate(0,0)" fill="rgb(247,5,3)" d="M 1254.82 742.293 C 1280.19 750.05 1313.64 761.973 1337.91 772.804 C 1326.02 783.698 1281.24 823.216 1269.32 830.446 C 1257.95 826.392 1246.54 822.441 1235.1 818.595 C 1242.4 792.815 1248.37 768.252 1254.82 742.293 z"/>
<path transform="translate(0,0)" fill="rgb(252,227,37)" d="M 1295.03 518.464 C 1329.81 523.135 1373.65 539.17 1403.86 557.194 C 1400.42 576.592 1395.03 591.524 1378.01 603.319 C 1364.66 612.712 1348.04 616.227 1332.02 613.047 C 1323.09 611.195 1316.17 607.852 1308.64 602.865 C 1278.28 576.419 1278.38 552.575 1295.03 518.464 z"/>
<path transform="translate(0,0)" fill="rgb(252,227,37)" d="M 1605.19 886.795 C 1604.16 886.671 1603.12 886.532 1602.08 886.377 C 1564.34 880.795 1542.78 852.745 1547.6 814.501 C 1550.18 793.941 1562.65 782.681 1578.61 771.298 C 1595.41 804.013 1615.14 849.368 1605.19 886.795 z"/>
<path transform="translate(0,0)" fill="rgb(252,227,37)" d="M 1536.88 690.735 C 1532.6 692.348 1525.95 694.375 1521.53 694.806 C 1510.94 695.847 1500.38 692.463 1492.37 685.455 C 1483.46 677.785 1478.07 666.818 1477.43 655.083 C 1476.74 642.73 1481.03 632.154 1489.13 623.015 C 1503.08 639.744 1525.91 671.752 1536.88 690.735 z"/>
<path transform="translate(0,0)" fill="rgb(43,9,60)" d="M 1402.87 1008.07 C 1407.81 1007.28 1412.74 1007.41 1417.72 1007.65 C 1440.35 1008.74 1463.56 1006.98 1486.1 1008.42 L 1486.87 1009.36 C 1477.1 1013.67 1414.91 1010.52 1402.87 1008.07 z"/>
<path transform="translate(0,0)" fill="rgb(252,227,37)" d="M 1410.61 694.779 C 1428.22 690.353 1446.06 701.114 1450.36 718.753 C 1454.67 736.392 1443.78 754.159 1426.11 758.335 C 1408.62 762.469 1391.07 751.714 1386.81 734.251 C 1382.55 716.788 1393.18 699.161 1410.61 694.779 z"/>
<path transform="translate(0,0)" fill="rgb(43,9,60)" d="M 1086.12 999.801 C 1104.96 997.438 1128.19 993.9 1146.75 992.458 C 1151.17 1031.79 1159.5 1082.54 1161.97 1120.9 C 1162.36 1127.74 1162.9 1134.98 1163.14 1141.79 C 1168.24 1141.74 1173.78 1141.81 1178.85 1141.57 C 1177.79 1162.6 1178.92 1186.71 1178.81 1208 C 1178.24 1252.21 1178.05 1296.43 1178.22 1340.64 L 1177.92 1438.69 C 1177.85 1454.59 1177.26 1473.91 1177.9 1489.5 C 1143.12 1489.68 1108.91 1490.2 1074.09 1489.94 C 1074.39 1465.64 1074.36 1441.34 1074 1417.05 C 1073.91 1399.77 1074.34 1378.97 1073.2 1361.94 C 1045.4 1362.1 1012.44 1363.06 984.857 1362.06 L 984.949 1490.04 C 951.419 1490.16 915.198 1489.51 881.967 1490.38 L 881.922 1419.54 C 881.874 1405.41 882.247 1386.46 881.114 1372.69 C 881.273 1368.68 881.772 1367.15 879.429 1363.94 C 867.384 1355.48 849.571 1374.54 847.02 1386.94 C 847.382 1421.11 846.735 1455.65 847.076 1490.07 C 815.056 1488.84 777.378 1489.72 745.095 1490.01 C 713.914 1445.1 684.997 1394.46 653.406 1350.08 L 651.805 1349.96 C 652.009 1365.79 643.856 1371.83 629.19 1374.11 C 628.878 1410.46 628.333 1452.99 629.607 1489.05 L 564.896 1489.15 C 554.51 1489.17 536.818 1488.71 527.052 1489.95 C 527.729 1472.2 527.165 1450.85 527.149 1432.89 L 526.93 1323.05 C 522.496 1320.98 516.756 1322.05 511.26 1317.72 C 490.67 1301.49 502.579 1277.07 526.908 1275.31 C 526.396 1261.09 527.427 1245.68 526.28 1231.67 C 524.784 1231.77 523.286 1231.84 521.787 1231.88 C 498.477 1232.53 485.47 1211.79 501.075 1192.19 C 506.653 1185.19 517.57 1184.86 526.104 1185.1 C 526.15 1170.81 526.337 1156.54 525.712 1142.27 C 526.12 1141.06 525.784 1141.79 527.068 1140.28 C 537.46 1139.26 557.551 1139.86 568.711 1139.9 C 561.212 1122.22 559.078 1117.62 556.715 1098.45 C 562.613 1096.21 567.573 1094.56 572.961 1091.23 C 578.027 1092.25 584.98 1094.46 590.454 1095.83 C 599.791 1098.16 608.959 1099.27 618.061 1101.21 C 634.46 1095 678.769 1074.45 692.128 1071.35 L 690.883 1061.99 L 690.399 1057.31 C 688.481 1058.58 688.928 1058.64 686.866 1059.04 L 684.404 1058.54 C 687.244 1057.05 686.044 1058.07 687.859 1055.08 C 687.406 1039.61 694.313 1047.55 706.376 1042.8 C 708.537 1040.31 708.015 1041.72 707.963 1038.4 C 705.101 1035.77 700.321 1035.46 696.307 1034.71 L 697.93 1034.18 C 711.105 1035.62 721 1038.34 734.22 1036.11 C 739.68 1040.38 739.756 1039.11 744.09 1041.67 C 756.284 1040.48 769.123 1039.39 781.139 1037.14 C 787.497 1035.7 802.258 1034.46 809.086 1033.63 C 828.895 1031.24 848.205 1029.27 867.958 1026.17 C 874.805 1026.07 895.934 1022.58 905.172 1021.77 C 902.75 1024.75 899.641 1028.2 897.962 1031.56 L 900.133 1034.21 C 903.483 1040.31 904.817 1043.04 909.31 1048.37 C 916.834 1046.69 925.059 1044.6 932.671 1044.05 L 933.732 1044.64 C 943.52 1050.17 951.454 1060.98 963.731 1057.87 C 971.685 1055.85 980.841 1045.42 985.491 1038.87 L 988.251 1041.4 L 988.778 1043.41 L 990.508 1041.8 C 993.93 1041.57 995.199 1041.8 998.01 1039.82 C 996.881 1036.8 996.949 1034.25 996.643 1030.96 C 996.896 1029.49 997.412 1027.88 997.816 1026.42 C 1000.44 1023.1 1001.89 1023.06 1006.12 1021.62 C 1005.75 1013.75 1007.51 1011.29 1014.7 1008.53 C 1025.46 1007.51 1049.31 1005.15 1059.03 1003.02 C 1067.96 1001.71 1077.13 1000.8 1086.12 999.801 z M 985.689 1261.96 C 1012.56 1262.7 1046.23 1262.28 1073.06 1261.76 C 1073.36 1235.55 1073.34 1209.34 1072.99 1183.14 C 1064.65 1184.87 1056.23 1185.27 1046.87 1187.33 C 1031.46 1218.39 1012.12 1240.07 985.689 1261.96 z M 743.985 1322.62 C 744.686 1291.46 745.181 1256.26 743.932 1225.17 L 733.405 1227.19 C 752.351 1250.1 736.402 1266.67 714.429 1276.43 C 725.09 1291.29 734.956 1306.71 743.985 1322.62 z M 847.851 1212.12 C 847.594 1223.77 848.4 1248.59 847.574 1258.11 C 853.744 1254.18 852.994 1253.1 860.708 1249.8 C 865.053 1236.88 867.79 1230.98 874.396 1218.96 L 880.849 1208.4 C 869.89 1209.98 858.886 1211.22 847.851 1212.12 z"/>
<path transform="translate(0,0)" fill="rgb(43,9,60)" d="M 526.28 1231.67 C 524.784 1231.77 523.286 1231.84 521.787 1231.88 C 498.477 1232.53 485.47 1211.79 501.075 1192.19 C 506.653 1185.19 517.57 1184.86 526.104 1185.1 C 533.826 1189.89 539.939 1198.29 547.154 1204.36 C 558.744 1214.11 574.787 1213.79 587.115 1218.67 C 588.873 1233.67 596.006 1233.3 603.766 1243.94 C 613.697 1257.55 624.96 1270.44 636.279 1282.25 C 643.747 1290.05 632.543 1303.84 653.717 1306.01 C 642.969 1327.52 646.895 1329.93 651.805 1349.96 C 652.009 1365.79 643.856 1371.83 629.19 1374.11 C 628.878 1410.46 628.333 1452.99 629.607 1489.05 L 564.896 1489.15 C 554.51 1489.17 536.818 1488.71 527.052 1489.95 C 527.729 1472.2 527.165 1450.85 527.149 1432.89 L 526.93 1323.05 C 522.496 1320.98 516.756 1322.05 511.26 1317.72 C 490.67 1301.49 502.579 1277.07 526.908 1275.31 C 526.396 1261.09 527.427 1245.68 526.28 1231.67 z"/>
<path transform="translate(0,0)" fill="rgb(98,37,129)" d="M 526.28 1231.67 C 524.784 1231.77 523.286 1231.84 521.787 1231.88 C 498.477 1232.53 485.47 1211.79 501.075 1192.19 C 506.653 1185.19 517.57 1184.86 526.104 1185.1 C 533.826 1189.89 539.939 1198.29 547.154 1204.36 C 558.744 1214.11 574.787 1213.79 587.115 1218.67 C 588.873 1233.67 596.006 1233.3 603.766 1243.94 C 613.697 1257.55 624.96 1270.44 636.279 1282.25 C 643.747 1290.05 632.543 1303.84 653.717 1306.01 C 642.969 1327.52 646.895 1329.93 651.805 1349.96 C 652.009 1365.79 643.856 1371.83 629.19 1374.11 C 622.643 1373.87 616.205 1371.89 611.652 1366.55 C 589.451 1340.54 627.091 1334.87 624.906 1308.68 C 625.025 1303.1 622.315 1293.98 617.449 1290.35 C 600.116 1277.43 568.789 1286.98 555.089 1301.43 C 545.471 1311.57 541.378 1323.32 526.93 1323.05 C 522.496 1320.98 516.756 1322.05 511.26 1317.72 C 490.67 1301.49 502.579 1277.07 526.908 1275.31 C 526.396 1261.09 527.427 1245.68 526.28 1231.67 z"/>
<path transform="translate(0,0)" fill="rgb(43,9,60)" d="M 526.28 1231.67 C 572.243 1224.21 613.627 1260.38 543.066 1273.62 C 537.644 1274.64 532.373 1274.75 526.908 1275.31 C 526.396 1261.09 527.427 1245.68 526.28 1231.67 z"/>
<path transform="translate(0,0)" fill="rgb(2,164,166)" d="M 692.128 1071.35 C 692.87 1084.55 695.169 1098.4 695.321 1111.31 C 674.89 1108.84 654.533 1108.08 633.985 1106.91 C 642.576 1110.35 672.527 1124.25 679.254 1125.33 C 679.494 1125.92 699.461 1158.17 701.032 1160.35 C 703.748 1182.9 706.575 1207.31 708.568 1229.9 C 716.675 1228.89 725.294 1227.65 733.405 1227.19 C 752.351 1250.1 736.402 1266.67 714.429 1276.43 C 695.81 1283.32 664.861 1290.41 653.717 1306.01 C 632.543 1303.84 643.747 1290.05 636.279 1282.25 C 624.96 1270.44 613.697 1257.55 603.766 1243.94 C 596.006 1233.3 588.873 1233.67 587.115 1218.67 C 574.787 1213.79 558.744 1214.11 547.154 1204.36 C 539.939 1198.29 533.826 1189.89 526.104 1185.1 C 526.15 1170.81 526.337 1156.54 525.712 1142.27 C 526.12 1141.06 525.784 1141.79 527.068 1140.28 C 537.46 1139.26 557.551 1139.86 568.711 1139.9 C 561.212 1122.22 559.078 1117.62 556.715 1098.45 C 562.613 1096.21 567.573 1094.56 572.961 1091.23 C 578.027 1092.25 584.98 1094.46 590.454 1095.83 C 599.791 1098.16 608.959 1099.27 618.061 1101.21 C 634.46 1095 678.769 1074.45 692.128 1071.35 z"/>
<path transform="translate(0,0)" fill="rgb(43,9,60)" d="M 568.711 1139.9 C 593.479 1186.93 619.188 1207.37 665.12 1233.47 L 663.213 1233.05 C 651.846 1230.49 637.152 1223.71 628.881 1222.34 C 616.966 1220.36 600.652 1220.53 587.115 1218.67 C 574.787 1213.79 558.744 1214.11 547.154 1204.36 C 539.939 1198.29 533.826 1189.89 526.104 1185.1 C 526.15 1170.81 526.337 1156.54 525.712 1142.27 C 526.12 1141.06 525.784 1141.79 527.068 1140.28 C 537.46 1139.26 557.551 1139.86 568.711 1139.9 z"/>
<path transform="translate(0,0)" fill="rgb(2,164,166)" d="M 1008.55 1193.41 C 1021.25 1191.21 1034.1 1189.53 1046.87 1187.33 C 1031.46 1218.39 1012.12 1240.07 985.689 1261.96 C 976.039 1269.35 971.514 1272.14 961.128 1277.87 C 955.069 1281.22 933.661 1289.28 930.713 1292.25 C 930.32 1325.79 912.351 1331.81 914.388 1366.97 C 911.325 1364.7 903.36 1358.5 899.958 1357.08 C 875.289 1346.82 862.758 1326.45 842.191 1310.89 C 828.222 1313.87 812.123 1320.04 799.263 1314.69 C 817.6 1296.85 829.931 1276.42 847.574 1258.11 C 853.744 1254.18 852.994 1253.1 860.708 1249.8 C 865.053 1236.88 867.79 1230.98 874.396 1218.96 C 882.933 1217.93 895.955 1215.02 904.855 1213.5 C 931.373 1209.06 957.85 1204.37 984.283 1199.45 C 991.837 1196.87 1000.68 1195.15 1008.55 1193.41 z"/>
<path transform="translate(0,0)" fill="rgb(37,57,119)" d="M 984.283 1199.45 C 991.837 1196.87 1000.68 1195.15 1008.55 1193.41 C 983.216 1229.25 964.241 1241.3 922.446 1254.41 C 935.375 1246.6 982.069 1214.19 984.283 1199.45 z"/>
<path transform="translate(0,0)" fill="rgb(98,37,129)" d="M 799.263 1314.69 C 812.123 1320.04 828.222 1313.87 842.191 1310.89 C 862.758 1326.45 875.289 1346.82 899.958 1357.08 C 903.36 1358.5 911.325 1364.7 914.388 1366.97 C 916.354 1378.8 918.082 1391.23 923.906 1401.89 C 929.452 1412.05 944.239 1418.38 946.294 1430.38 C 948.406 1442.72 938.966 1456.28 926.472 1458.48 C 920.022 1459.62 912.028 1459.45 906.456 1455.42 C 892.868 1444.75 897.937 1426.85 898.658 1412.67 C 899.322 1399.62 893.07 1378.86 883.918 1369.73 L 882.589 1369.74 L 881.114 1372.69 C 881.273 1368.68 881.772 1367.15 879.429 1363.94 C 867.384 1355.48 849.571 1374.54 847.02 1386.94 C 835.774 1400.13 835.665 1425.75 835.76 1441.97 C 835.966 1477.1 783.976 1475.37 785.171 1441.04 C 785.763 1424.07 800.284 1420.05 809.182 1408.12 C 818.078 1395.26 845.436 1340.27 814.947 1336.13 C 806.098 1336.06 793.731 1344.02 787.245 1349.38 C 776.426 1358.31 766.275 1376.38 749.843 1373.26 C 736.797 1370.39 727.508 1356.79 730.768 1343.68 C 736.655 1319.99 758.729 1328.11 776.22 1325.38 C 784.024 1324.15 792.499 1318.86 799.263 1314.69 z"/>
<path transform="translate(0,0)" fill="rgb(98,37,129)" d="M 897.962 1031.56 L 900.133 1034.21 C 903.483 1040.31 904.817 1043.04 909.31 1048.37 C 916.834 1046.69 925.059 1044.6 932.671 1044.05 L 933.732 1044.64 C 943.52 1050.17 951.454 1060.98 963.731 1057.87 C 971.685 1055.85 980.841 1045.42 985.491 1038.87 L 988.251 1041.4 L 988.778 1043.41 C 988.503 1047.61 987.684 1048.04 989.589 1050.65 L 991.154 1051.17 C 989.106 1051.98 988.321 1051.59 987.665 1053.52 C 986.096 1058.13 986.541 1065.8 989.128 1069.82 L 993.87 1074.42 L 993.646 1075.66 C 996.122 1077.55 1008.8 1084.43 1011.23 1084.9 C 1016.73 1096.01 1026.73 1106.33 1012.76 1115.84 L 1011.9 1119.21 L 1010.62 1121.81 C 1008.04 1119.76 1005.59 1120.06 1003.38 1122.78 L 1002.47 1121.81 C 998.634 1121.07 989.16 1122.83 984.747 1123.47 L 986.876 1121.28 L 986.742 1119.65 L 982.067 1117.8 C 983.128 1117.21 982.564 1117.66 983.462 1116.14 C 975.714 1109.81 979.58 1102.4 972.939 1099.4 L 973.914 1098.91 L 974.029 1097.64 C 971.143 1095.91 969.925 1096.04 966.616 1095.69 C 963.314 1096.1 964.683 1096.53 962.259 1094.83 C 960.143 1089.04 959.516 1081.64 963.422 1076.62 C 963.521 1074.98 962.791 1074.53 961.706 1072.57 C 956.536 1073.14 953.158 1073.44 948.053 1074.68 C 947.88 1071.84 948.147 1070.19 946.27 1068.14 C 939.714 1068.57 945.068 1077.04 929.451 1077.48 C 926.849 1079.75 927.299 1080.3 926.979 1084.62 C 927.772 1089.56 928.942 1094.78 928.512 1099.68 L 927.069 1101.16 L 924.564 1102.77 L 924.771 1104.44 C 925.767 1104.96 926.892 1105.68 927.907 1105.91 C 925.675 1112.27 929.206 1116.99 925.688 1122.62 C 925.632 1123.01 925.575 1123.4 925.519 1123.79 L 931.147 1124.73 L 927.52 1125.88 C 926.899 1127.65 926.274 1129.29 925.271 1130.89 C 919.154 1129.49 915.084 1135.54 904.573 1136.22 C 901.079 1137.07 901.234 1136.88 898.521 1139.18 C 897.952 1136.61 898.148 1136.6 896.435 1134.68 C 893.162 1134.23 891.523 1134.66 888.304 1135.13 C 892.225 1133.2 891.392 1134.57 892.559 1131.64 C 889.456 1129.62 889.64 1130.28 885.38 1129.98 C 884.323 1124.93 883.687 1114.17 881.252 1111.22 L 883.37 1109.66 L 883.14 1107.06 C 889.617 1103.7 895.945 1092.87 897.911 1085.97 C 898.564 1084.82 898.578 1084.3 898.938 1083 L 897.125 1082.31 C 893.581 1077.68 893.813 1069.37 893.125 1063.07 C 889.836 1064.23 888.165 1065.92 886.505 1068.99 C 887.512 1074.03 889.014 1077.48 886.912 1081.73 C 884.94 1082.62 884.647 1082.85 882.575 1083.39 C 875.859 1084.96 875.49 1083.82 873.744 1090.74 L 871.575 1090.15 C 864.504 1094.4 862.847 1097.53 853.835 1101.26 L 852.831 1104.68 L 851.489 1103.38 L 849.794 1103.77 C 848.553 1106.89 848.325 1107.4 847.628 1110.83 C 846.917 1096.55 845.193 1096.79 831.837 1094.11 L 833.005 1092.49 C 831.742 1089.7 832.69 1090.96 828.988 1089.39 L 832.007 1088.33 C 833.395 1083.62 831.181 1077.33 832.097 1071.24 C 838.576 1069.03 835.462 1062.23 848.973 1057.76 C 855.214 1057.19 861.175 1056.89 867.242 1055.35 L 868.425 1053.15 L 870.013 1054.33 C 872.712 1053.53 872.346 1053.01 874.479 1050.28 C 879.279 1048.79 887.682 1041.7 889.646 1037.01 L 888.221 1035.42 C 892.961 1033.65 892.995 1034.93 897.962 1031.56 z"/>
<path transform="translate(0,0)" fill="rgb(223,212,246)" d="M 963.422 1076.62 C 970.746 1078.73 977.576 1084.74 974.937 1092.99 C 972.056 1095.66 971.372 1094.93 966.616 1095.69 C 963.314 1096.1 964.683 1096.53 962.259 1094.83 C 960.143 1089.04 959.516 1081.64 963.422 1076.62 z"/>
<path transform="translate(0,0)" fill="rgb(223,212,246)" d="M 893.125 1063.07 C 897.516 1061.44 900.521 1060.48 904.695 1062.11 C 908.199 1067.86 902.708 1079.83 897.125 1082.31 C 893.581 1077.68 893.813 1069.37 893.125 1063.07 z"/>
<path transform="translate(0,0)" fill="rgb(223,212,246)" d="M 882.575 1083.39 C 879.34 1083.33 876.835 1083.48 873.697 1082.64 C 875.124 1077.62 881.095 1072.42 884.997 1068.85 L 886.505 1068.99 C 887.512 1074.03 889.014 1077.48 886.912 1081.73 C 884.94 1082.62 884.647 1082.85 882.575 1083.39 z"/>
<path transform="translate(0,0)" fill="rgb(223,212,246)" d="M 927.069 1101.16 L 924.432 1100.88 C 920.623 1097.17 921.242 1087.3 926.979 1084.62 C 927.772 1089.56 928.942 1094.78 928.512 1099.68 L 927.069 1101.16 z"/>
<path transform="translate(0,0)" fill="rgb(223,212,246)" d="M 948.053 1074.68 C 948.493 1071.98 948.31 1071.04 950.153 1069.11 C 955.389 1068.21 956.863 1069.71 961.706 1072.57 C 956.536 1073.14 953.158 1073.44 948.053 1074.68 z"/>
<path transform="translate(0,0)" fill="rgb(223,212,246)" d="M 881.252 1111.22 C 883.687 1114.17 884.323 1124.93 885.38 1129.98 L 865.016 1132.49 C 863.631 1125.55 863.161 1121.36 862.558 1114.29 C 869.626 1113.43 874.343 1112.83 881.252 1111.22 z"/>
<path transform="translate(0,0)" fill="rgb(223,212,246)" d="M 1011.9 1119.21 C 1018.63 1118.71 1024.05 1118.18 1030.73 1117.21 C 1031.46 1123.02 1032.25 1128.82 1032.66 1134.66 C 1026.36 1135.5 1018.42 1136.77 1012.22 1137.24 C 1011.61 1132.07 1010.94 1127.02 1010.62 1121.81 L 1011.9 1119.21 z"/>
<path transform="translate(0,0)" fill="rgb(223,212,246)" d="M 984.747 1123.47 C 989.16 1122.83 998.634 1121.07 1002.47 1121.81 L 1003.38 1122.78 C 1004.69 1128.46 1004.88 1132.62 1005.31 1138.37 L 985.66 1140.93 C 984.685 1135.09 983.959 1130.5 983.434 1124.58 L 984.747 1123.47 z"/>
<path transform="translate(0,0)" fill="rgb(223,212,246)" d="M 812.615 1073.32 C 819.101 1072.56 825.596 1071.87 832.097 1071.24 C 831.181 1077.33 833.395 1083.62 832.007 1088.33 L 828.988 1089.39 C 823.389 1090.56 818.897 1092.62 814.178 1088.9 C 812.181 1084.62 812.676 1078.31 812.615 1073.32 z"/>
<path transform="translate(0,0)" fill="rgb(223,212,246)" d="M 847.011 1041.33 C 852.683 1040.15 861.182 1039.41 867.153 1038.72 C 867.54 1043.53 867.964 1048.34 868.425 1053.15 L 867.242 1055.35 C 861.175 1056.89 855.214 1057.19 848.973 1057.76 C 848.14 1052.59 847.608 1046.59 847.011 1041.33 z"/>
<path transform="translate(0,0)" fill="rgb(223,212,246)" d="M 888.304 1135.13 C 891.523 1134.66 893.162 1134.23 896.435 1134.68 C 898.148 1136.6 897.952 1136.61 898.521 1139.18 L 900.346 1151.38 L 880.113 1153.71 C 879.119 1147.74 878.979 1142.2 878.669 1136.17 C 882.491 1135.44 884.385 1135.34 888.304 1135.13 z"/>
<path transform="translate(0,0)" fill="rgb(223,212,246)" d="M 831.837 1094.11 C 845.193 1096.79 846.917 1096.55 847.628 1110.83 C 840.769 1111.82 834.839 1112.56 827.94 1113.16 C 827.199 1108.72 825.074 1099.76 827.35 1096.09 C 828.228 1094.68 829.709 1094.75 831.837 1094.11 z"/>
<path transform="translate(0,0)" fill="rgb(223,212,246)" d="M 904.573 1136.22 C 915.084 1135.54 919.154 1129.49 925.271 1130.89 C 925.359 1136.89 925.835 1142.2 926.352 1148.17 C 919.867 1148.9 913.11 1149.54 906.7 1150.59 L 904.573 1136.22 z"/>
<path transform="translate(0,0)" fill="rgb(223,212,246)" d="M 1006.12 1021.62 C 1011 1020.74 1010.78 1019.99 1014.74 1021.45 C 1017.42 1024.68 1017.21 1031.91 1017.68 1036.66 C 1011.64 1037.59 1003.85 1038.57 998.01 1039.82 C 996.881 1036.8 996.949 1034.25 996.643 1030.96 C 996.896 1029.49 997.412 1027.88 997.816 1026.42 C 1000.44 1023.1 1001.89 1023.06 1006.12 1021.62 z"/>
<path transform="translate(0,0)" fill="rgb(228,227,231)" d="M 697.93 1034.18 C 711.105 1035.62 721 1038.34 734.22 1036.11 C 739.68 1040.38 739.756 1039.11 744.09 1041.67 C 735.506 1042.69 693.739 1045.63 690.324 1048.57 C 689.541 1052.45 689.853 1053.28 690.399 1057.31 C 688.481 1058.58 688.928 1058.64 686.866 1059.04 L 684.404 1058.54 C 687.244 1057.05 686.044 1058.07 687.859 1055.08 C 687.406 1039.61 694.313 1047.55 706.376 1042.8 C 708.537 1040.31 708.015 1041.72 707.963 1038.4 C 705.101 1035.77 700.321 1035.46 696.307 1034.71 L 697.93 1034.18 z"/>
<path transform="translate(0,0)" fill="rgb(223,212,246)" d="M 852.831 1104.68 L 853.835 1101.26 C 862.847 1097.53 864.504 1094.4 871.575 1090.15 L 873.744 1090.74 C 874.301 1095.83 875.122 1101.75 875.262 1106.81 C 868.471 1108.15 862.374 1110.07 855.69 1109.05 C 853.814 1107.28 853.928 1107.07 852.831 1104.68 z"/>
<path transform="translate(0,0)" fill="rgb(228,227,231)" d="M 679.254 1125.33 L 698.76 1131.69 C 699.191 1140.19 701.105 1153.26 701.032 1160.35 C 699.461 1158.17 679.494 1125.92 679.254 1125.33 z"/>
<path transform="translate(0,0)" fill="rgb(223,212,246)" d="M 897.911 1085.97 C 895.945 1092.87 889.617 1103.7 883.14 1107.06 C 881.626 1102.47 880.535 1093.69 879.758 1088.63 L 897.911 1085.97 z"/>
<path transform="translate(0,0)" fill="rgb(223,212,246)" d="M 927.907 1105.91 C 929.414 1105.94 933.255 1105.59 933.998 1106.66 C 938.179 1112.67 940.132 1122.82 931.147 1124.73 L 925.519 1123.79 C 925.575 1123.4 925.632 1123.01 925.688 1122.62 C 929.206 1116.99 925.675 1112.27 927.907 1105.91 z"/>
<path transform="translate(0,0)" fill="rgb(223,212,246)" d="M 972.939 1099.4 C 979.58 1102.4 975.714 1109.81 983.462 1116.14 C 982.564 1117.66 983.128 1117.21 982.067 1117.8 C 978.276 1118.11 974.076 1118.74 970.265 1119.22 C 969.678 1111.18 966.279 1104.57 972.939 1099.4 z"/>
<path transform="translate(0,0)" fill="rgb(223,212,246)" d="M 888.221 1035.42 L 889.646 1037.01 C 887.682 1041.7 879.279 1048.79 874.479 1050.28 C 873.573 1046.18 873.208 1042.03 872.725 1037.86 L 888.221 1035.42 z"/>
<path transform="translate(0,0)" fill="rgb(223,212,246)" d="M 991.154 1051.17 L 993.68 1051.72 C 996.69 1056.47 996.28 1061.75 995.199 1066.95 C 992.849 1069.64 993.381 1068.81 989.128 1069.82 C 986.541 1065.8 986.096 1058.13 987.665 1053.52 C 988.321 1051.59 989.106 1051.98 991.154 1051.17 z"/>
<path transform="translate(0,0)" fill="rgb(223,212,246)" d="M 993.87 1074.42 C 999.137 1073.64 1003.53 1072.89 1008.9 1072.79 L 1011.23 1084.9 C 1008.8 1084.43 996.122 1077.55 993.646 1075.66 L 993.87 1074.42 z"/>
<path transform="translate(0,0)" fill="rgb(223,212,246)" d="M 975.273 1147.39 C 977.164 1147.05 982.904 1146.79 985.105 1146.63 L 987.197 1164.71 C 967.673 1166.34 945.489 1169.64 925.863 1172.13 L 839.082 1182.72 C 835.022 1183.41 830.628 1183.84 826.514 1184.32 C 825.228 1176.97 825.031 1173.59 824.816 1166.09 C 838.488 1163.39 863.512 1161.13 878.295 1159.33 L 975.273 1147.39 z"/>
<path transform="translate(0,0)" fill="rgb(223,212,246)" d="M 1102.53 1083.41 C 1106.19 1083.05 1104.77 1082.49 1107.16 1084.43 C 1109.08 1090.28 1108.95 1096.3 1109.25 1102.51 C 1092.05 1104.02 1073.5 1106.53 1056.24 1108.53 C 1053.84 1108.93 1055.06 1108.97 1052.57 1108.33 C 1050.21 1104.6 1050.35 1095.63 1050.06 1090.73 C 1067.49 1087.88 1084.99 1085.44 1102.53 1083.41 z"/>
<path transform="translate(0,0)" fill="rgb(223,212,246)" d="M 759.39 1151.45 C 762.181 1151.08 760.945 1150.77 763.233 1152.34 C 764.99 1157.2 764.921 1162.83 765.231 1168.09 C 751.636 1170.39 734.186 1172.05 720.23 1173.78 C 717.874 1174.07 718.761 1174.11 716.459 1173.4 C 714.378 1169.87 714.142 1161.98 713.635 1157.37 C 724.467 1154.75 747.828 1152.72 759.39 1151.45 z"/>
<path transform="translate(0,0)" fill="rgb(223,212,246)" d="M 1097.54 1037.45 C 1100.25 1037.03 1099.03 1036.83 1101.23 1038.26 C 1102.92 1043.25 1103.09 1049.17 1103.55 1054.51 C 1090.06 1055.66 1074.81 1057.88 1061.22 1059.55 L 1057.95 1059.91 L 1056.29 1058.43 C 1054.48 1053.76 1054.9 1047.82 1054.85 1042.63 C 1069.05 1040.7 1083.28 1038.98 1097.54 1037.45 z"/>
<path transform="translate(0,0)" fill="rgb(223,212,246)" d="M 1074.98 1111.41 C 1077.88 1110.81 1077.78 1110.6 1080.47 1111.68 C 1083.03 1116.04 1082.89 1123.25 1083.29 1128.63 C 1070.28 1130.53 1057.22 1132.09 1044.13 1133.32 C 1041.69 1133.73 1042.58 1133.72 1040.15 1133.22 C 1037.55 1128.95 1037.42 1121.57 1036.86 1116.26 C 1047.68 1114.28 1063.69 1112.8 1074.98 1111.41 z"/>
<path transform="translate(0,0)" fill="rgb(223,212,246)" d="M 1098.69 1060.44 C 1101.06 1060.02 1100.9 1059.99 1103.23 1060.57 C 1106.03 1064.02 1106.39 1073.29 1106.91 1078.09 C 1096.7 1079.43 1086.47 1080.72 1076.23 1081.94 C 1071.91 1082.23 1072.86 1082.82 1069.78 1080.96 C 1067.44 1076.32 1067.81 1070.32 1067.23 1064.57 C 1077.63 1062.59 1088.13 1061.21 1098.69 1060.44 z"/>
<path transform="translate(0,0)" fill="rgb(223,212,246)" d="M 708.764 1110 C 717.423 1108.51 731.918 1107.28 740.532 1106.75 L 741.915 1124.85 C 736.936 1127.59 731.303 1128.09 725.745 1128.98 C 731.184 1129.89 733.633 1129.52 738.41 1130.06 C 731.446 1131.12 717.356 1132.57 711.272 1134.31 C 711.405 1132.64 711.147 1130.07 711.041 1128.32 C 709.876 1124.72 709.167 1114.35 708.764 1110 z"/>
<path transform="translate(0,0)" fill="rgb(45,27,87)" d="M 711.041 1128.32 C 721.142 1127.05 731.804 1125.52 741.915 1124.85 C 736.936 1127.59 731.303 1128.09 725.745 1128.98 C 731.184 1129.89 733.633 1129.52 738.41 1130.06 C 731.446 1131.12 717.356 1132.57 711.272 1134.31 C 711.405 1132.64 711.147 1130.07 711.041 1128.32 z"/>
<path transform="translate(0,0)" fill="rgb(223,212,246)" d="M 738.41 1130.06 C 741.804 1129.84 745.322 1129.66 748.692 1129.29 L 750.867 1146.81 C 740.583 1148.54 723.684 1150.84 713.25 1151.4 C 712.622 1146.22 711.608 1139.38 711.272 1134.31 C 717.356 1132.57 731.446 1131.12 738.41 1130.06 z"/>
<path transform="translate(0,0)" fill="rgb(223,212,246)" d="M 741.17 1176.38 L 750.416 1175.55 C 751.506 1181.07 752.387 1187.47 753.284 1193.1 C 745.839 1194.21 738.368 1195.14 730.877 1195.89 C 726.686 1196.73 722.545 1196.87 718.277 1197.16 C 717.377 1191.33 717.07 1185.34 716.659 1179.44 L 741.17 1176.38 z"/>
<path transform="translate(0,0)" fill="rgb(223,212,246)" d="M 813.508 1167.44 C 816.169 1167.03 814.922 1166.81 817.257 1168.06 C 819.043 1173.27 819.027 1179.42 819.378 1185.03 L 796.224 1187.99 C 794.168 1188.13 794.899 1188.13 792.835 1187.48 C 790.709 1182.84 790.529 1176.2 789.678 1170.65 C 797.922 1169.28 805.192 1168.35 813.508 1167.44 z"/>
<path transform="translate(0,0)" fill="rgb(223,212,246)" d="M 1014.84 1142.43 C 1017 1142.14 1015.96 1141.95 1017.93 1143.1 C 1019.66 1147.85 1019.88 1155.37 1020.31 1160.63 C 1012.3 1161.72 1004.28 1162.65 996.238 1163.43 C 994.745 1163.78 995.613 1163.78 993.717 1162.77 C 992.343 1158.03 992.131 1150.45 991.764 1145.32 C 998.981 1144.12 1007.48 1143.31 1014.84 1142.43 z"/>
<path transform="translate(0,0)" fill="rgb(223,212,246)" d="M 782.74 1171.57 C 784.44 1173.87 785.332 1185.8 785.796 1189.6 C 777.533 1190.3 769.288 1191.2 761.068 1192.3 C 758.072 1189.54 758.027 1178.99 757.644 1174.37 C 766 1173.36 774.366 1172.42 782.74 1171.57 z"/>
<path transform="translate(0,0)" fill="rgb(223,212,246)" d="M 1040.68 1139.4 C 1044.59 1138.85 1042.95 1138.46 1046.04 1139.7 C 1048.56 1144.17 1048.59 1151.22 1049.09 1156.62 L 1034.23 1158.77 C 1031.1 1159.16 1030.2 1159.64 1027.4 1158.3 C 1024.56 1153.76 1025.07 1146.91 1024.84 1141.25 L 1040.68 1139.4 z"/>
<path transform="translate(0,0)" fill="rgb(223,212,246)" d="M 1111.14 1130.49 L 1112.58 1131.24 C 1114.25 1136.01 1114.85 1143.54 1115.5 1148.76 L 1097.23 1150.65 C 1095.46 1150.69 1096.39 1150.9 1094.56 1149.63 C 1093.14 1144.15 1093.07 1138.25 1092.72 1132.54 C 1098.85 1131.78 1104.99 1131.09 1111.14 1130.49 z"/>
<path transform="translate(0,0)" fill="rgb(223,212,246)" d="M 948.974 1079.41 C 951.175 1078.95 951.014 1078.95 953.179 1079.57 C 955.992 1083.65 955.274 1092.38 955.273 1097.63 C 949.814 1097.94 944.238 1098.79 938.8 1099.49 L 936.99 1099.35 C 933.902 1096.43 933.51 1086.2 933.012 1081.5 L 948.974 1079.41 z"/>
<path transform="translate(0,0)" fill="rgb(223,212,246)" d="M 1130.29 1057.39 C 1133.09 1057.04 1131.83 1056.67 1134.22 1058.21 C 1135.93 1063.32 1136.01 1070.15 1136.4 1075.67 L 1119.02 1077.35 L 1116.74 1077.08 C 1114.78 1073.98 1114.45 1064.08 1113.96 1059.43 C 1119.27 1058.89 1124.97 1058.07 1130.29 1057.39 z"/>
<path transform="translate(0,0)" fill="rgb(223,212,246)" d="M 1080.68 1134.41 L 1084.02 1134.09 C 1088.14 1137.69 1087.8 1145.82 1088.37 1151.75 L 1073.21 1154.04 C 1069.86 1154.62 1071.35 1154.89 1068.54 1153.68 C 1066.15 1149.01 1066.16 1142.11 1065.6 1136.51 C 1070.62 1135.58 1075.61 1135.04 1080.68 1134.41 z"/>
<path transform="translate(0,0)" fill="rgb(223,212,246)" d="M 1137.61 1127.49 C 1139.01 1127.02 1138.15 1127.15 1140.23 1127.71 C 1142.13 1132.29 1142.7 1139.76 1143.37 1144.91 L 1127.19 1146.99 C 1123.27 1147.02 1124.73 1147.74 1122.37 1145.44 C 1120.46 1140.31 1120.91 1134.83 1120.86 1129.24 L 1137.61 1127.49 z"/>
<path transform="translate(0,0)" fill="rgb(223,212,246)" d="M 1125.42 1034.42 C 1129.56 1034.01 1128.77 1033.41 1131.32 1035.27 C 1133.53 1040.04 1133.27 1046.25 1133.53 1051.7 C 1128.66 1052.67 1124.16 1052.97 1119.23 1053.42 C 1117.87 1053.86 1116.48 1053.78 1114.97 1053.87 C 1111.17 1050.07 1111.91 1041.61 1111.73 1035.87 L 1125.42 1034.42 z"/>
<path transform="translate(0,0)" fill="rgb(223,212,246)" d="M 869.182 1137.47 C 870.4 1137.36 869.649 1137.3 871.311 1138.23 C 872.701 1143.37 872.818 1149.32 873.186 1154.7 L 855.05 1157.13 L 853.162 1156.33 C 851.357 1152.18 851.074 1144.35 850.624 1139.54 L 869.182 1137.47 z"/>
<path transform="translate(0,0)" fill="rgb(223,212,246)" d="M 848.714 1116.39 C 851.735 1115.83 852.251 1115.43 855.106 1116.53 C 858.033 1120.59 858.009 1127.82 858.53 1133.14 L 847.8 1134.86 C 843.246 1135.27 841.981 1135.87 838.531 1133.9 C 836.21 1130.11 836.416 1123.24 835.91 1118.15 C 840.031 1117.42 844.533 1116.93 848.714 1116.39 z"/>
<path transform="translate(0,0)" fill="rgb(223,212,246)" d="M 1108.48 1107.45 L 1109.52 1107.53 C 1111.49 1109.87 1111.97 1121.01 1112.32 1124.82 C 1107.13 1125.85 1099.32 1126.65 1093.91 1127.35 L 1092.1 1126.36 C 1090.38 1122.15 1090.51 1114.09 1090.29 1109.21 C 1095.92 1108.9 1102.77 1108.04 1108.48 1107.45 z"/>
<path transform="translate(0,0)" fill="rgb(223,212,246)" d="M 1018.63 1047.45 C 1020.46 1047.16 1019.48 1047.04 1021.47 1048.35 C 1023.05 1053.77 1023.03 1059.1 1023.35 1064.77 C 1017.75 1065.06 1011.68 1066.29 1006.1 1067.24 L 1004.3 1067 C 1001.76 1063.76 1001.47 1054.17 1001.03 1049.45 L 1018.63 1047.45 z"/>
<path transform="translate(0,0)" fill="rgb(223,212,246)" d="M 794.144 1123.4 C 797.164 1122.97 798.923 1122.33 801.544 1123.78 C 803.95 1127.51 803.945 1135.07 804.433 1140.04 L 793.764 1141.32 C 790.115 1141.91 787.649 1142.86 784.551 1141.12 C 782.111 1137.72 782.186 1129.9 781.733 1125.07 C 785.708 1124.36 790.107 1123.91 794.144 1123.4 z"/>
<path transform="translate(0,0)" fill="rgb(223,212,246)" d="M 799.662 1075.41 C 800.469 1075.2 803.1 1075.1 804.051 1075.04 L 805.705 1076.6 C 807.575 1081.24 807.207 1087.63 807.323 1092.83 C 803.119 1093.08 797.867 1093.92 793.607 1094.48 C 791.095 1094.86 791.185 1094.95 788.73 1094.43 C 785.65 1090.7 785.95 1082.49 785.686 1077.4 C 790.13 1076.44 795.114 1075.97 799.662 1075.41 z"/>
<path transform="translate(0,0)" fill="rgb(223,212,246)" d="M 827.011 1119.48 C 828.269 1119.44 827.498 1119.33 829.113 1120.5 C 830.546 1124.92 830.939 1131.91 831.424 1136.73 L 813.951 1139.28 C 812.5 1138.89 812.723 1138.8 811.42 1137.83 C 809.684 1132.23 809.834 1127.1 809.585 1121.23 L 827.011 1119.48 z"/>
<path transform="translate(0,0)" fill="rgb(223,212,246)" d="M 764.021 1103.46 C 765.693 1103.3 764.826 1103.17 766.572 1104.09 C 767.984 1108.9 768.343 1115.5 768.845 1120.62 L 751.839 1123.57 C 751.285 1123.39 749.952 1122.6 749.378 1122.29 C 747.377 1117.17 747.346 1110.88 746.919 1105.27 L 764.021 1103.46 z"/>
<path transform="translate(0,0)" fill="rgb(223,212,246)" d="M 1033.87 1092.59 C 1038.46 1092.13 1038.85 1091.35 1042.49 1092.92 C 1045.36 1097.3 1044.85 1103.92 1045.21 1109.67 C 1041.75 1110.15 1038.72 1110.48 1035.23 1110.78 C 1030.1 1111.32 1029.86 1112.31 1026.13 1110.28 C 1023.99 1106.39 1024.2 1098.27 1023.71 1093.36 L 1033.87 1092.59 z"/>
<path transform="translate(0,0)" fill="rgb(223,212,246)" d="M 814.024 1144.44 L 816.292 1144.7 C 818.255 1149.14 818.712 1155.95 819.356 1160.97 C 813.85 1162.14 807.84 1162.88 802.24 1163.7 L 800.713 1163.72 C 796.962 1160.53 797.141 1151.56 796.696 1146.29 C 802.469 1145.65 808.245 1145.03 814.024 1144.44 z"/>
<path transform="translate(0,0)" fill="rgb(223,212,246)" d="M 742.263 1082.6 C 745.79 1082.03 747.839 1081.29 751.116 1082.64 C 754.479 1086.44 754.176 1093.41 754.66 1098.86 C 750.67 1099.55 746.281 1100.02 742.235 1100.55 C 738.846 1101.47 737.372 1101.49 734.77 1099.62 C 732.548 1094.93 732.858 1089.15 732.631 1083.78 L 742.263 1082.6 z"/>
<path transform="translate(0,0)" fill="rgb(223,212,246)" d="M 812.698 1097.37 C 817.032 1097.1 816.682 1096.37 819.302 1098.36 C 821.542 1103.02 821.291 1109.01 821.566 1114.37 L 809.232 1115.95 C 806.175 1116.4 805.739 1116.76 802.907 1115.52 C 799.808 1111.3 800.024 1104.84 799.53 1099.34 L 812.698 1097.37 z"/>
<path transform="translate(0,0)" fill="rgb(223,212,246)" d="M 1046.86 1043.48 C 1048.92 1045.38 1049.62 1057.83 1049.97 1061.21 C 1043.49 1062.34 1038.47 1062.8 1031.92 1063.36 L 1030.55 1062.55 C 1028.82 1056.93 1028.9 1052.08 1028.59 1046.21 C 1034.65 1044.92 1040.72 1044.26 1046.86 1043.48 z"/>
<path transform="translate(0,0)" fill="rgb(223,212,246)" d="M 722.51 1085.45 C 724.208 1085.04 723.252 1085.03 725.325 1085.99 C 727.035 1091.3 727.039 1097.1 727.398 1102.73 C 722.236 1103.56 716.471 1104.12 711.235 1104.74 C 710.582 1104.77 709.3 1104.5 708.593 1104.38 C 706.543 1100.42 706.351 1092.41 705.726 1087.29 C 711.212 1086.8 717.005 1086.06 722.51 1085.45 z"/>
<path transform="translate(0,0)" fill="rgb(223,212,246)" d="M 777.742 1078.47 L 778.36 1078.8 C 780.254 1081.87 780.811 1091.51 781.261 1095.7 C 776.033 1096.74 767.826 1097.43 762.27 1098.04 C 760.471 1095.59 759.543 1084.31 759.093 1080.66 C 765.3 1079.76 771.507 1079.15 777.742 1078.47 z"/>
<path transform="translate(0,0)" fill="rgb(223,212,246)" d="M 950.018 1127.6 C 951.552 1130.03 952.41 1141.03 952.837 1144.65 C 946.76 1145.33 940.248 1146.36 934.152 1147.21 C 931.549 1144.68 931.111 1133.51 930.671 1129.32 L 950.018 1127.6 z"/>
<path transform="translate(0,0)" fill="rgb(223,212,246)" d="M 780.245 1148.62 C 785.32 1147.85 786.488 1147.1 790.165 1149.44 C 792.373 1153.31 792.206 1159.98 792.514 1164.73 L 780.384 1166.42 C 775.847 1166.9 776.499 1167.54 773.132 1165.79 C 770.553 1161.63 770.894 1155.27 770.612 1150.06 L 780.245 1148.62 z"/>
<path transform="translate(0,0)" fill="rgb(223,212,246)" d="M 834.605 1141.35 C 837.775 1140.93 838.172 1140.67 841.341 1141.4 C 846.45 1146.51 846.471 1150.49 844.15 1156.87 C 841.087 1159.52 841.688 1158.67 836.762 1159.19 C 823.753 1161.52 822.426 1155.64 824.678 1143.69 C 826.924 1141.96 831.537 1141.76 834.605 1141.35 z"/>
<path transform="translate(0,0)" fill="rgb(223,212,246)" d="M 838.701 1042.41 C 841.357 1043.94 841.706 1055.33 842.065 1058.88 C 836.326 1060.04 828.188 1060.73 822.206 1061.41 C 820.244 1058.77 819.664 1048.64 819.266 1044.93 C 825.373 1043.81 832.463 1043.14 838.701 1042.41 z"/>
<path transform="translate(0,0)" fill="rgb(223,212,246)" d="M 975.036 1124.56 L 975.667 1124.71 C 977.625 1126.85 978.633 1137.47 979.157 1141.06 C 973.797 1142.14 966.785 1142.97 961.235 1143.76 L 959.377 1142.8 C 957.519 1138.14 957.265 1131.56 956.747 1126.39 C 962.822 1125.23 968.867 1124.98 975.036 1124.56 z"/>
<path transform="translate(0,0)" fill="rgb(223,212,246)" d="M 951.719 1103.39 C 953.281 1103.08 960.399 1102.76 962.396 1102.63 C 962.947 1108.27 964.365 1112.36 963.328 1117.9 C 961.402 1120.67 962.179 1119.78 957.755 1120.67 L 943.863 1122.48 C 943.139 1117.21 941.5 1110.56 943.307 1105.94 C 946.447 1103.05 946.387 1103.97 951.719 1103.39 z"/>
<path transform="translate(0,0)" fill="rgb(223,212,246)" d="M 719.123 1057.45 C 721.125 1057.07 720.057 1057.01 722.293 1057.93 C 723.907 1062.78 723.968 1069.17 724.322 1074.4 L 707.369 1076.47 C 706.454 1076.6 707.145 1076.56 705.396 1075.82 C 703.471 1070.65 703.196 1064.81 702.586 1059.25 L 719.123 1057.45 z"/>
<path transform="translate(0,0)" fill="rgb(223,212,246)" d="M 1059.88 1065.48 L 1060.5 1065.77 C 1062 1068.4 1062.95 1079.74 1063.38 1083.5 L 1045.12 1085.41 C 1042.53 1082.06 1042.28 1072.76 1041.85 1068.03 C 1047.67 1066.96 1053.98 1066.26 1059.88 1065.48 z"/>
<path transform="translate(0,0)" fill="rgb(223,212,246)" d="M 791.955 1100.54 C 794.684 1103.23 794.949 1113.53 795.306 1117.77 C 788.902 1118.55 783.354 1118.87 776.925 1119.22 L 775.564 1118.54 C 774.32 1113.55 774.068 1107.52 773.637 1102.31 C 779.733 1101.62 785.839 1101.03 791.955 1100.54 z"/>
<path transform="translate(0,0)" fill="rgb(223,212,246)" d="M 772.384 1126.48 L 774.378 1126.87 C 776.443 1131.83 776.681 1138.2 777.26 1143.68 L 760.235 1145.5 L 758.614 1145.7 C 756.238 1142.6 756.253 1132.75 755.95 1128.19 C 761.079 1127.39 767.148 1126.97 772.384 1126.48 z"/>
<path transform="translate(0,0)" fill="rgb(223,212,246)" d="M 1033.31 1069.51 L 1034.93 1070.03 C 1036.44 1073.77 1036.78 1082.4 1037.15 1086.8 L 1019.76 1088.12 C 1019.25 1088.05 1018.01 1087.49 1017.46 1087.27 C 1015.96 1082.21 1016.07 1076.62 1015.84 1071.27 L 1033.31 1069.51 z"/>
<path transform="translate(0,0)" fill="rgb(223,212,246)" d="M 1065.64 1014.48 C 1067.27 1014.02 1066.29 1014.11 1068.57 1014.76 C 1070.5 1019.25 1070.4 1025.67 1070.71 1030.75 C 1065.49 1031.06 1059.5 1031.85 1054.24 1032.4 C 1051.85 1032.69 1053 1032.88 1050.78 1031.77 C 1048.88 1026.86 1049.05 1021.62 1048.79 1016.27 C 1054.27 1015.52 1060.11 1015.03 1065.64 1014.48 z"/>
<path transform="translate(0,0)" fill="rgb(223,212,246)" d="M 1087.25 1011.34 C 1090.33 1010.85 1091.83 1010.29 1094.7 1011.48 C 1096.77 1014 1096.71 1014.35 1096.96 1017.44 L 1097.74 1026.98 C 1094.98 1027.5 1091.59 1027.87 1088.76 1028.26 C 1085.01 1028.82 1082.22 1029.75 1078.92 1028.16 C 1076.15 1024.9 1076.21 1018.08 1075.71 1013.37 C 1079.5 1012.57 1083.42 1011.98 1087.25 1011.34 z"/>
<path transform="translate(0,0)" fill="rgb(223,212,246)" d="M 1039.28 1017.48 L 1040.45 1017.38 C 1043.08 1019.68 1043.66 1029.38 1044.19 1033.61 L 1027.23 1035.84 C 1025.64 1035.86 1026.56 1035.96 1024.52 1035.24 C 1022.57 1030.28 1022.68 1024.76 1022.35 1019.34 L 1039.28 1017.48 z"/>
<path transform="translate(0,0)" fill="rgb(223,212,246)" d="M 810.255 1046.5 C 811.568 1046.31 810.767 1046.29 812.585 1047.09 C 814.027 1052.22 814.029 1057.5 814.334 1062.86 C 808.584 1063.21 802.288 1063.93 796.503 1064.48 L 795.265 1064.33 C 793.521 1061.4 793.092 1052.24 792.699 1048.32 C 798.471 1047.55 804.446 1047.06 810.255 1046.5 z"/>
<path transform="translate(0,0)" fill="rgb(223,212,246)" d="M 1127.26 1006.49 L 1127.93 1006.79 C 1129.57 1009.59 1130.02 1018.94 1130.39 1022.71 C 1124.3 1023.65 1118.2 1024.53 1112.09 1025.33 C 1109.27 1023.22 1109.04 1012.57 1108.65 1008.68 L 1127.26 1006.49 z"/>
<path transform="translate(0,0)" fill="rgb(223,212,246)" d="M 782.624 1049.4 C 784.685 1049.18 783.641 1049.02 785.713 1050.1 C 787.552 1054.74 787.418 1060.63 787.69 1065.76 C 782.579 1066.57 777.382 1066.97 772.224 1067.45 L 770.491 1067.86 L 769.122 1066.93 C 767.44 1062.72 767.058 1056.07 766.528 1051.37 C 771.559 1051 777.546 1050.06 782.624 1049.4 z"/>

    <path transform="translate(0,0)" fill="rgb(43,9,60)" d="M 1371.73 1134.42 C 1405.38 1132.87 1445.5 1140.38 1474.31 1158.54 C 1501.94 1175.98 1525.15 1203.97 1536.18 1234.87 C 1540.31 1246.45 1542.46 1259.04 1545.26 1271.02 C 1512.08 1270.6 1478.92 1269.97 1445.76 1270.98 C 1437.61 1257.67 1431.35 1248.55 1418.27 1240.06 C 1382.82 1217.04 1332.64 1230.92 1311.43 1266.85 C 1299.09 1287.05 1296.16 1312.97 1301.38 1335.91 C 1311.85 1381.88 1356.99 1407.1 1402.04 1394.71 C 1426.26 1388.05 1435.77 1375.57 1447.94 1354.77 C 1473.44 1355.34 1499.62 1354.91 1525.3 1355.28 C 1531.9 1355.01 1539.05 1355.04 1545.7 1354.94 C 1540.71 1386.5 1530.16 1411.5 1510.6 1436.92 C 1453.53 1511.09 1327.39 1510.77 1258.63 1454.69 C 1183.59 1393.47 1177.72 1264.99 1239.75 1192.63 C 1274.91 1151.45 1320.06 1138.88 1371.73 1134.42 z"/>
<path transform="translate(0,0)" fill="rgb(5,170,239)" d="M 375.638 863.309 C 391.661 865.398 411.035 869.533 427.168 872.585 C 429.054 872.987 434.742 874.084 436.23 874.674 C 457.96 876.606 482.643 882.792 504.385 886.178 C 512.736 887.478 527.981 891.13 535.868 890.501 C 543.758 890.456 588.925 900.82 599.689 903.149 C 601.634 917.744 603.952 948.98 607.518 961.266 L 608.964 960.849 C 614.185 964.787 623.615 974.026 627.209 976.309 C 630.959 979.642 641.466 988.553 644.354 991.825 C 647.281 994.296 656.513 1001.86 658.586 1004.66 C 660.729 1007.03 662.761 1009.5 665.25 1011.48 C 671.611 1014.49 690.37 1028.13 697.126 1032.93 L 697.93 1034.18 L 696.307 1034.71 C 700.321 1035.46 705.101 1035.77 707.963 1038.4 C 708.015 1041.72 708.537 1040.31 706.376 1042.8 C 694.313 1047.55 687.406 1039.61 687.859 1055.08 C 686.044 1058.07 687.244 1057.05 684.404 1058.54 L 686.866 1059.04 C 688.928 1058.64 688.481 1058.58 690.399 1057.31 L 690.883 1061.99 L 692.128 1071.35 C 678.769 1074.45 634.46 1095 618.061 1101.21 C 608.959 1099.27 599.791 1098.16 590.454 1095.83 C 584.98 1094.46 578.027 1092.25 572.961 1091.23 C 567.573 1094.56 562.613 1096.21 556.715 1098.45 C 553.494 1099.4 549.237 1100.82 545.993 1101.18 C 521.393 1104.59 477.388 1098.44 456.921 1085.61 C 446.29 1079.58 439.106 1062.32 427.981 1058.46 C 419.876 1057.96 413.12 1056.03 405.289 1054.09 L 404.542 1040.11 L 403.142 1033.04 C 395.791 996.081 391.671 957.633 385.038 920.444 C 381.689 901.665 378.268 882.178 375.638 863.309 z"/>
<path transform="translate(0,0)" fill="rgb(192,244,251)" d="M 436.23 874.674 C 457.96 876.606 482.643 882.792 504.385 886.178 C 512.736 887.478 527.981 891.13 535.868 890.501 C 543.758 890.456 588.925 900.82 599.689 903.149 C 601.634 917.744 603.952 948.98 607.518 961.266 L 608.964 960.849 C 614.185 964.787 623.615 974.026 627.209 976.309 C 630.959 979.642 641.466 988.553 644.354 991.825 C 647.281 994.296 656.513 1001.86 658.586 1004.66 C 660.729 1007.03 662.761 1009.5 665.25 1011.48 C 671.611 1014.49 690.37 1028.13 697.126 1032.93 L 697.93 1034.18 L 696.307 1034.71 C 700.321 1035.46 705.101 1035.77 707.963 1038.4 C 708.015 1041.72 708.537 1040.31 706.376 1042.8 C 694.313 1047.55 687.406 1039.61 687.859 1055.08 C 686.044 1058.07 687.244 1057.05 684.404 1058.54 L 686.866 1059.04 C 688.928 1058.64 688.481 1058.58 690.399 1057.31 L 690.883 1061.99 L 692.128 1071.35 C 678.769 1074.45 634.46 1095 618.061 1101.21 L 600.134 972.49 C 597.008 951.36 594.611 929.898 590.333 909 C 572.75 904.943 441.109 878.224 436.23 874.674 z"/>
<path transform="translate(0,0)" fill="url(#Gradient1)" d="M 607.518 961.266 L 608.964 960.849 C 614.185 964.787 623.615 974.026 627.209 976.309 C 630.959 979.642 641.466 988.553 644.354 991.825 C 647.281 994.296 656.513 1001.86 658.586 1004.66 L 652.06 1009.37 L 642.181 1017.57 L 636.538 1021.99 C 635.875 1026.11 635.646 1026.62 636.346 1030.64 C 631.392 1029.9 620.394 1027.16 616.497 1027.98 C 615.469 1023.69 615.348 1022.3 615.037 1017.85 C 614.837 1007.76 609.147 973.016 607.518 961.266 z"/>
<path transform="translate(0,0)" fill="rgb(142,224,237)" d="M 615.037 1017.85 C 621.708 1019.18 629.939 1021.04 636.538 1021.99 C 635.875 1026.11 635.646 1026.62 636.346 1030.64 C 631.392 1029.9 620.394 1027.16 616.497 1027.98 C 615.469 1023.69 615.348 1022.3 615.037 1017.85 z"/>
<path transform="translate(0,0)" fill="rgb(37,57,119)" d="M 644.354 991.825 C 647.281 994.296 656.513 1001.86 658.586 1004.66 L 652.06 1009.37 L 648.498 1010.3 L 646.156 1008.5 C 643.337 1003.28 643.601 997.62 644.354 991.825 z"/>
<path transform="translate(0,0)" fill="rgb(5,170,239)" d="M 616.497 1027.98 C 620.394 1027.16 631.392 1029.9 636.346 1030.64 C 646.205 1032.7 657.613 1034.8 667.265 1037.25 L 637.453 1051.42 C 631.201 1050.3 624.673 1049.16 618.526 1047.57 C 618.446 1041.04 617.37 1034.46 616.497 1027.98 z"/>
<path transform="translate(0,0)" fill="rgb(2,164,166)" d="M 652.06 1009.37 L 658.586 1004.66 C 660.729 1007.03 662.761 1009.5 665.25 1011.48 C 671.611 1014.49 690.37 1028.13 697.126 1032.93 C 680.258 1030.26 657.511 1026.46 641.121 1022.56 L 640.72 1021.69 L 644.009 1019.13 L 642.181 1017.57 L 652.06 1009.37 z"/>
<path transform="translate(0,0)" fill="rgb(228,227,231)" d="M 652.06 1009.37 L 658.586 1004.66 C 660.729 1007.03 662.761 1009.5 665.25 1011.48 C 655.32 1013.37 653.297 1014.66 644.009 1019.13 L 642.181 1017.57 L 652.06 1009.37 z"/>
<path transform="translate(0,0)" fill="rgb(5,170,239)" d="M 690.399 1057.31 L 690.883 1061.99 C 679.679 1066.83 633.581 1087.64 625.364 1087.34 C 624.463 1086.3 623.893 1085.82 623.243 1084.63 C 629.013 1081.42 642.742 1077.08 649.496 1074.3 C 661.841 1069.22 674.446 1063.88 686.866 1059.04 C 688.928 1058.64 688.481 1058.58 690.399 1057.31 z"/>
<path transform="translate(0,0)" fill="rgb(98,37,129)" d="M 467.154 996.487 C 471.234 996.822 479.652 997.844 483.241 997.922 L 483.819 998.07 C 487.597 1002.01 495.948 1010.28 494.947 1016.27 C 492.502 1030.89 485.66 1041.16 489.323 1056.7 C 491.567 1069.41 498.934 1077.57 512.234 1078.11 C 543.936 1079.45 513.195 1028.23 544.518 1026.56 C 553.478 1026.09 559.501 1029.05 564.294 1036.73 C 573.684 1051.79 559.804 1061.9 549.545 1071.01 C 544.412 1075.57 543.274 1077.99 540.666 1084.27 C 551.594 1086.06 562.188 1088.7 572.961 1091.23 C 567.573 1094.56 562.613 1096.21 556.715 1098.45 C 553.494 1099.4 549.237 1100.82 545.993 1101.18 C 521.393 1104.59 477.388 1098.44 456.921 1085.61 C 446.29 1079.58 439.106 1062.32 427.981 1058.46 C 419.876 1057.96 413.12 1056.03 405.289 1054.09 L 404.542 1040.11 L 403.142 1033.04 L 403.449 1031.88 C 407.014 1018.73 416.783 1008.03 432.587 1012.09 C 446.857 1015.76 445.531 1040.15 451.073 1050.78 C 456.198 1060.62 460.693 1064.75 471.715 1068.45 C 468.739 1041.11 443.894 1019.39 461.809 999.383 L 467.154 996.487 z"/>
<path transform="translate(0,0)" fill="rgb(2,164,166)" d="M 456.921 1085.61 C 476.877 1078.27 485.778 1090.21 505.642 1089.35 C 514.696 1088.95 525.595 1081.69 534.082 1084.29 C 538.445 1091.13 540.075 1095.74 545.993 1101.18 C 521.393 1104.59 477.388 1098.44 456.921 1085.61 z"/>
<path transform="translate(0,0)" fill="rgb(5,170,239)" d="M 404.542 1040.11 C 412.369 1048.92 425.621 1054.24 427.981 1058.46 C 419.876 1057.96 413.12 1056.03 405.289 1054.09 L 404.542 1040.11 z"/>
<path transform="translate(0,0)" fill="rgb(228,227,231)" d="M 467.425 972.94 C 470.044 959.273 477.184 947.076 491.953 952.167 C 519.557 961.683 529.72 1009.88 483.819 998.07 L 483.241 997.922 C 472.615 989.843 471.425 985.318 467.425 972.94 z"/>
<path transform="translate(0,0)" fill="rgb(192,244,251)" d="M 461.809 999.383 C 454.651 999.093 418.655 993.508 415.09 988.187 C 415.894 987.177 416.353 986.152 417.495 986.073 C 427.057 985.407 459.798 993.153 467.154 996.487 L 461.809 999.383 z"/>
<path transform="translate(0,0)" fill="rgb(192,244,251)" d="M 403.257 907.746 C 411.001 907.972 441.723 914.829 450.879 916.633 C 479.916 922.319 509.034 927.588 538.223 932.439 C 540.99 934.923 540.349 935.258 541.646 939.471 C 529.203 938.666 500.048 932.623 486.899 930.064 L 406.803 914.538 C 403.9 912.124 404.644 912.058 403.257 907.746 z"/>
<path transform="translate(0,0)" fill="rgb(192,244,251)" d="M 494.678 939.561 C 520.409 946.002 550.1 949.955 576.242 955.423 C 578.735 957.877 577.924 957.736 578.391 962.283 L 528.251 952.881 C 519.103 951.237 504.677 949.248 496.242 946.686 C 494.067 944.056 494.832 943.927 494.678 939.561 z"/>
<path transform="translate(0,0)" fill="rgb(192,244,251)" d="M 405.176 923.534 C 415.641 924.167 433.274 928.645 444.42 930.728 C 456.984 933.077 471.581 935.378 483.833 938.249 C 485.944 940.971 485.292 941.441 485.71 945.561 C 460.701 939.564 434.789 936.25 409.725 930.492 C 406.897 929.842 406.18 926.021 405.176 923.534 z"/>
<path transform="translate(0,0)" fill="rgb(192,244,251)" d="M 516.243 959.182 C 531.786 961.453 563.329 967.772 578.85 971.374 C 581.285 973.986 580.588 974.197 581.327 978.468 C 567.132 974.953 528.207 969.737 517.356 964.443 C 515.271 961.625 515.858 963.253 516.243 959.182 z"/>
<path transform="translate(0,0)" fill="rgb(192,244,251)" d="M 401.972 892.145 C 420.53 895.643 445.376 899.684 463.14 904.492 C 465.456 906.859 464.716 906.868 465.196 911.086 C 447.11 906.9 420.438 903.702 403.78 898.759 C 401.656 896.082 402.342 896.261 401.972 892.145 z"/>
<path transform="translate(0,0)" fill="rgb(192,244,251)" d="M 522.61 975.171 C 539.74 978.73 564.771 982.287 580.614 986.491 C 583.406 989.205 582.589 988.983 583.597 993.58 C 575.31 991.992 525.611 983.573 522.239 980.018 L 522.61 975.171 z"/>
<path transform="translate(0,0)" fill="rgb(192,244,251)" d="M 407.947 938.475 C 424.599 941.886 441.59 944.694 458.072 948.437 C 460.49 950.809 459.72 950.466 460.276 954.754 C 454.096 954.522 417.933 947.286 411.257 945.729 C 408.232 943.083 409.115 943.293 407.947 938.475 z"/>
<path transform="translate(0,0)" fill="rgb(192,244,251)" d="M 411.035 953.956 C 422.119 956.574 449.659 959.35 460.261 965.22 C 461.156 965.715 460.675 968.218 460.612 969.77 C 449.125 968.429 425.624 963.866 413.862 960.126 C 411.298 959.31 411.416 956.446 411.035 953.956 z"/>
<path transform="translate(0,0)" fill="rgb(192,244,251)" d="M 412.863 969.855 C 424.735 971.252 448.835 975.406 460.572 979.296 C 462.837 980.046 462.942 982.198 463.664 984.472 C 454.756 984.885 425.822 978.823 416.19 975.834 C 413.57 975.021 413.496 972.37 412.863 969.855 z"/>
<path transform="translate(0,0)" fill="rgb(249,112,3)" d="M 1256.97 988.869 C 1270.93 998.461 1275.51 1002.26 1287.17 1014.57 C 1287.03 1056.55 1287.71 1086.49 1290.38 1128.56 C 1251.92 1148.98 1226.48 1170.5 1200.97 1206.63 C 1200.51 1177.7 1199.72 1147.89 1199.88 1118.98 L 1189.07 1119.8 C 1186.3 1112.99 1193.08 1078.41 1195.07 1069.91 C 1197.53 1067.06 1198.16 1066.59 1199.55 1062.97 C 1201.5 1057.83 1203.27 1054.79 1206.62 1050.53 C 1213.19 1043.23 1216.4 1040.49 1225.42 1036.84 C 1227.7 1042.36 1228.7 1044.23 1231.73 1049.31 C 1239.68 1029.33 1248.64 1008.8 1256.97 988.869 z"/>
<path transform="translate(0,0)" fill="rgb(210,105,27)" d="M 1225.42 1036.84 C 1227.7 1042.36 1228.7 1044.23 1231.73 1049.31 C 1229.81 1053.78 1228.28 1054.9 1224.84 1058.53 C 1216.43 1060.12 1208 1061.6 1199.55 1062.97 C 1201.5 1057.83 1203.27 1054.79 1206.62 1050.53 C 1213.19 1043.23 1216.4 1040.49 1225.42 1036.84 z"/>
<path transform="translate(0,0)" fill="rgb(142,224,237)" fill-opacity="0.156863" d="M 427.168 872.585 C 428.984 871.963 428.184 872.442 429.575 871.165 L 424.659 869.688 L 424.825 868.777 C 431.623 865.659 459.637 870.199 469.695 870.747 C 488.253 872.071 512.163 877.8 530.653 882.555 C 533.404 885.978 533.885 886.626 535.868 890.501 C 527.981 891.13 512.736 887.478 504.385 886.178 C 482.643 882.792 457.96 876.606 436.23 874.674 C 434.742 874.084 429.054 872.987 427.168 872.585 z"/>
</svg>