<svg version="1.1" xmlns="http://www.w3.org/2000/svg" style="display: block;" viewBox="0 0 2048 2048" width="1024" height="1024" preserveAspectRatio="none">
<defs>
	<linearGradient id="Gradient1" gradientUnits="userSpaceOnUse" x1="1028.78" y1="1025.71" x2="1017.21" y2="1005.56">
		<stop class="stop0" offset="0" stop-opacity="1" stop-color="rgb(45,61,120)"/>
		<stop class="stop1" offset="1" stop-opacity="1" stop-color="rgb(78,45,135)"/>
	</linearGradient>
	<linearGradient id="Gradient2" gradientUnits="userSpaceOnUse" x1="1206.21" y1="1008.83" x2="1213.88" y2="1053.3">
		<stop class="stop0" offset="0" stop-opacity="1" stop-color="rgb(165,82,16)"/>
		<stop class="stop1" offset="1" stop-opacity="1" stop-color="rgb(193,103,36)"/>
	</linearGradient>
</defs>
<path transform="translate(0,0)" fill="rgb(4,92,37)" d="M 869.876 708.405 C 881.925 685.841 928.541 613.803 948.611 601.685 C 960.654 594.413 974.011 588.454 986.61 582.169 C 1036.91 556.831 1089.22 535.719 1143.02 519.051 C 1177.07 508.476 1179.73 508.3 1215.55 510.634 C 1257.46 513.364 1293.09 517.838 1333.89 527.858 C 1351.6 534.444 1391.7 550.707 1407.86 560.777 C 1416.48 565.539 1460.34 589.207 1464.51 593.616 C 1495.91 626.851 1541.48 695.863 1560.67 736.806 C 1574.26 763.944 1585.1 789.156 1596.3 817.215 C 1609.26 849.713 1607.91 855.964 1605.52 889.511 C 1601.66 943.757 1602.11 957.396 1563.07 998.689 C 1525.3 1007.92 1465.68 1015.53 1426.75 1012.54 C 1383.38 1009.21 1333.42 997.99 1290.05 990.882 C 1286.85 998.88 1287.01 1027.12 1286.26 1036.42 C 1287.4 1065.41 1286.37 1100 1290.11 1128.44 C 1250.8 1146.67 1228.21 1170.48 1201.76 1204.19 C 1200.77 1179.03 1200.68 1143.99 1201.21 1118.48 L 1186.86 1118.84 L 1058.89 1119.06 L 1059.5 1105.81 C 1061.16 1096.4 1060.66 1081.41 1062.95 1071.64 C 1068.66 1047.28 1077.6 1021.56 1085.6 997.762 L 1087.81 991.829 C 1092.02 981.775 1105.02 946.975 1107.58 937.253 C 1104.92 932.98 1102.18 929.306 1101 924.474 C 1104.22 925.893 1108.05 927.303 1111.36 928.621 L 1117.9 911.247 C 1121.29 903.441 1124.63 894.173 1127.75 886.148 C 1129.89 880.546 1132.1 874.974 1134.4 869.434 C 1135.47 866.084 1138.03 860.396 1139.44 856.956 C 1142.38 850.581 1145.05 843.075 1147.58 836.434 C 1140.69 833.392 1125.27 828.789 1117.58 826.245 C 1092.25 817.859 1066.34 810.819 1041.08 802.047 C 1036.04 800.299 1024.83 795.896 1020.28 798.182 C 1003.79 782.287 991.756 746.501 966.137 739.188 C 951.406 734.983 936.879 729.784 922.506 724.481 C 906.719 720.112 889.023 714.131 873.223 709.204 L 869.876 708.405 z"/>
<path transform="translate(0,0)" fill="rgb(188,156,116)" d="M 1200.51 813.157 C 1211.99 813.96 1224.28 816.288 1235.6 818.489 C 1247.7 821.31 1258.55 825.623 1270.06 830.274 C 1282.68 836.87 1291.06 842.431 1302.59 850.848 C 1305.5 853.752 1316.81 864.448 1318.13 867.207 C 1315.32 871.155 1313.93 879.462 1312.52 884.647 C 1311.64 888.966 1310.88 893.232 1309.64 897.458 L 1306.48 911.537 L 1302.95 926.405 C 1299.62 941.304 1296.28 955.923 1293.58 970.951 C 1292.67 976.289 1291.32 985.964 1290.05 990.882 C 1286.85 998.88 1287.01 1027.12 1286.26 1036.42 C 1287.4 1065.41 1286.37 1100 1290.11 1128.44 C 1250.8 1146.67 1228.21 1170.48 1201.76 1204.19 C 1200.77 1179.03 1200.68 1143.99 1201.21 1118.48 L 1186.86 1118.84 L 1058.89 1119.06 L 1059.5 1105.81 C 1061.16 1096.4 1060.66 1081.41 1062.95 1071.64 C 1068.66 1047.28 1077.6 1021.56 1085.6 997.762 L 1087.81 991.829 C 1092.02 981.775 1105.02 946.975 1107.58 937.253 C 1104.92 932.98 1102.18 929.306 1101 924.474 C 1104.22 925.893 1108.05 927.303 1111.36 928.621 L 1117.9 911.247 C 1121.29 903.441 1124.63 894.173 1127.75 886.148 C 1129.89 880.546 1132.1 874.974 1134.4 869.434 C 1135.47 866.084 1138.03 860.396 1139.44 856.956 C 1142.38 850.581 1145.05 843.075 1147.58 836.434 C 1150.18 831.503 1153.05 826.193 1153.06 820.598 C 1157.32 819.041 1163.86 817.678 1168.42 816.58 C 1178.96 815.517 1190.06 814.578 1200.51 813.157 z"/>
<path transform="translate(0,0)" fill="rgb(244,225,189)" d="M 1134.4 869.434 C 1169.44 886.706 1190.89 897.614 1223.84 918.621 C 1220.03 936.768 1216.37 954.947 1212.86 973.155 C 1211.32 981.48 1208.73 998.93 1206.65 1006.46 C 1209.81 1006.59 1213.23 1006.06 1215.08 1008.38 C 1220.81 1015.59 1224.21 1032.21 1226.49 1040.92 C 1223.13 1041.77 1221.77 1041.58 1218.37 1041.5 C 1216.02 1043.93 1202.87 1058.65 1201.95 1059.28 L 1200.08 1063.64 C 1198.37 1068.2 1198.11 1068.77 1194.73 1072.25 C 1191.17 1088.51 1189.28 1102.38 1186.86 1118.84 L 1058.89 1119.06 L 1059.5 1105.81 C 1061.16 1096.4 1060.66 1081.41 1062.95 1071.64 C 1068.66 1047.28 1077.6 1021.56 1085.6 997.762 L 1087.81 991.829 C 1092.02 981.775 1105.02 946.975 1107.58 937.253 C 1104.92 932.98 1102.18 929.306 1101 924.474 C 1104.22 925.893 1108.05 927.303 1111.36 928.621 L 1117.9 911.247 C 1121.29 903.441 1124.63 894.173 1127.75 886.148 C 1129.89 880.546 1132.1 874.974 1134.4 869.434 z"/>
<path transform="translate(0,0)" fill="url(#Gradient2)" d="M 1206.65 1006.46 C 1209.81 1006.59 1213.23 1006.06 1215.08 1008.38 C 1220.81 1015.59 1224.21 1032.21 1226.49 1040.92 C 1223.13 1041.77 1221.77 1041.58 1218.37 1041.5 C 1216.02 1043.93 1202.87 1058.65 1201.95 1059.28 C 1202.83 1051.53 1204.48 1049.95 1198.45 1044.82 C 1200.99 1031.99 1203.72 1019.21 1206.65 1006.46 z"/>
<path transform="translate(0,0)" fill="rgb(188,156,116)" d="M 1194.73 1072.25 C 1195.06 1065.49 1197.42 1052 1198.45 1044.82 C 1204.48 1049.95 1202.83 1051.53 1201.95 1059.28 L 1200.08 1063.64 C 1198.37 1068.2 1198.11 1068.77 1194.73 1072.25 z"/>
<path transform="translate(0,0)" fill="rgb(250,109,4)" d="M 1257.22 989.695 C 1268.09 997.324 1278.76 1004.25 1285.71 1015.65 C 1285.67 1022.58 1285.85 1029.51 1286.26 1036.42 C 1287.4 1065.41 1286.37 1100 1290.11 1128.44 C 1250.8 1146.67 1228.21 1170.48 1201.76 1204.19 C 1200.77 1179.03 1200.68 1143.99 1201.21 1118.48 L 1186.86 1118.84 C 1189.28 1102.38 1191.17 1088.51 1194.73 1072.25 C 1198.11 1068.77 1198.37 1068.2 1200.08 1063.64 L 1201.95 1059.28 C 1202.87 1058.65 1216.02 1043.93 1218.37 1041.5 C 1221.77 1041.58 1223.13 1041.77 1226.49 1040.92 L 1229.76 1052.6 C 1238.89 1033.71 1248.82 1009.18 1257.22 989.695 z"/>
<path transform="translate(0,0)" fill="rgb(209,105,31)" d="M 1226.49 1040.92 L 1229.76 1052.6 C 1226.03 1066.96 1211.22 1055.31 1200.08 1063.64 L 1201.95 1059.28 C 1202.87 1058.65 1216.02 1043.93 1218.37 1041.5 C 1221.77 1041.58 1223.13 1041.77 1226.49 1040.92 z"/>
<path transform="translate(0,0)" fill="rgb(10,178,41)" d="M 869.876 708.405 C 881.925 685.841 928.541 613.803 948.611 601.685 C 960.654 594.413 974.011 588.454 986.61 582.169 C 1036.91 556.831 1089.22 535.719 1143.02 519.051 C 1177.07 508.476 1179.73 508.3 1215.55 510.634 C 1257.46 513.364 1293.09 517.838 1333.89 527.858 C 1321.24 562.287 1310.4 597.31 1298.01 631.782 C 1287.19 661.844 1278.75 699.652 1251.68 719.162 C 1182.58 700.393 1096.31 685.166 1024.45 682.603 C 1009.94 682.086 985.195 685.233 970.313 687.433 C 956.671 689.365 943.188 692.291 929.973 696.19 C 904.609 703.792 900.586 709.625 873.223 709.204 L 869.876 708.405 z"/>
<path transform="translate(0,0)" fill="rgb(100,34,131)" d="M 1425.4 815.818 C 1436.26 816.99 1494.97 860.358 1504.8 870.448 C 1525.2 888.156 1554.26 923.778 1556.16 951.534 C 1556.29 953.488 1556.4 955.444 1556.48 957.401 C 1549.02 954.287 1531.91 950.303 1523.74 947.907 C 1507.34 943.094 1490.85 938.204 1474.43 933.4 L 1312.52 884.647 C 1313.93 879.462 1315.32 871.155 1318.13 867.207 C 1316.81 864.448 1305.5 853.752 1302.59 850.848 C 1343.19 839.964 1385.43 828.669 1425.4 815.818 z"/>
<path transform="translate(0,0)" fill="rgb(250,109,4)" d="M 1425.4 815.818 C 1436.26 816.99 1494.97 860.358 1504.8 870.448 C 1465.71 869.677 1426.22 870.172 1387.18 869.371 C 1374.61 869.114 1327.94 870.255 1318.13 867.207 C 1316.81 864.448 1305.5 853.752 1302.59 850.848 C 1343.19 839.964 1385.43 828.669 1425.4 815.818 z"/>
<path transform="translate(0,0)" fill="rgb(249,6,6)" d="M 1312.52 884.647 L 1474.43 933.4 C 1490.85 938.204 1507.34 943.094 1523.74 947.907 C 1531.91 950.303 1549.02 954.287 1556.48 957.401 C 1548.88 979.424 1491.47 990.748 1471.3 988.6 C 1457.65 991.247 1412.17 989.907 1398.04 987.27 C 1388.02 986.554 1356.24 982.841 1347.63 979.501 C 1337.95 980.166 1306.48 972.902 1293.58 970.951 C 1296.28 955.923 1299.62 941.304 1302.95 926.405 L 1306.48 911.537 L 1309.64 897.458 C 1310.88 893.232 1311.64 888.966 1312.52 884.647 z"/>
<path transform="translate(0,0)" fill="rgb(100,34,131)" d="M 1309.64 897.458 C 1315.31 900.536 1320.68 903.85 1326.27 907.042 C 1374.4 934.566 1423.22 960.983 1471.3 988.6 C 1457.65 991.247 1412.17 989.907 1398.04 987.27 C 1388.02 986.554 1356.24 982.841 1347.63 979.501 C 1337.95 980.166 1306.48 972.902 1293.58 970.951 C 1296.28 955.923 1299.62 941.304 1302.95 926.405 L 1306.48 911.537 L 1309.64 897.458 z"/>
<path transform="translate(0,0)" fill="rgb(250,109,4)" d="M 1306.48 911.537 C 1331.18 929.242 1375.37 966.665 1398.04 987.27 C 1388.02 986.554 1356.24 982.841 1347.63 979.501 C 1337.95 980.166 1306.48 972.902 1293.58 970.951 C 1296.28 955.923 1299.62 941.304 1302.95 926.405 L 1306.48 911.537 z"/>
<path transform="translate(0,0)" fill="rgb(100,34,131)" d="M 1302.95 926.405 C 1318.43 943.602 1333.33 961.311 1347.63 979.501 C 1337.95 980.166 1306.48 972.902 1293.58 970.951 C 1296.28 955.923 1299.62 941.304 1302.95 926.405 z"/>
<path transform="translate(0,0)" fill="rgb(249,6,6)" d="M 1407.86 560.777 C 1416.48 565.539 1460.34 589.207 1464.51 593.616 C 1495.91 626.851 1541.48 695.863 1560.67 736.806 C 1507.86 743.216 1429 726.472 1405.76 671.702 C 1390.13 634.856 1393.76 597.384 1407.86 560.777 z"/>
<path transform="translate(0,0)" fill="rgb(250,109,4)" d="M 958.442 711.411 C 976.898 706.618 1036.48 702.708 1054.14 706.357 C 1063.39 717.154 1076.74 729.025 1087.34 739.111 L 1142.51 791.503 C 1150.64 799.195 1161.16 808.395 1168.42 816.58 C 1163.86 817.678 1157.32 819.041 1153.06 820.598 C 1153.05 826.193 1150.18 831.503 1147.58 836.434 C 1140.69 833.392 1125.27 828.789 1117.58 826.245 C 1092.25 817.859 1066.34 810.819 1041.08 802.047 C 1036.04 800.299 1024.83 795.896 1020.28 798.182 C 1003.79 782.287 991.756 746.501 966.137 739.188 C 951.406 734.983 936.879 729.784 922.506 724.481 C 930.588 715.969 947.103 712.774 958.442 711.411 z"/>
<path transform="translate(0,0)" fill="rgb(100,34,131)" d="M 922.506 724.481 C 930.588 715.969 947.103 712.774 958.442 711.411 C 966.118 717.127 982.86 725.647 992.162 730.738 C 1010.14 740.596 1028.06 750.558 1045.92 760.622 L 1112.68 798.273 C 1123.36 804.378 1142.5 816.027 1153.06 820.598 C 1153.05 826.193 1150.18 831.503 1147.58 836.434 C 1140.69 833.392 1125.27 828.789 1117.58 826.245 C 1092.25 817.859 1066.34 810.819 1041.08 802.047 C 1036.04 800.299 1024.83 795.896 1020.28 798.182 C 1003.79 782.287 991.756 746.501 966.137 739.188 C 951.406 734.983 936.879 729.784 922.506 724.481 z"/>
<path transform="translate(0,0)" fill="rgb(100,34,131)" d="M 1054.14 706.357 C 1071.86 706.335 1140.2 714.034 1157.45 718.812 C 1186.07 725.243 1228.08 733.668 1255.47 743.249 C 1248.55 767.535 1243.17 794.96 1235.6 818.489 C 1224.28 816.288 1211.99 813.96 1200.51 813.157 C 1190.06 814.578 1178.96 815.517 1168.42 816.58 C 1161.16 808.395 1150.64 799.195 1142.51 791.503 L 1087.34 739.111 C 1076.74 729.025 1063.39 717.154 1054.14 706.357 z"/>
<path transform="translate(0,0)" fill="rgb(250,109,4)" d="M 1157.45 718.812 C 1186.07 725.243 1228.08 733.668 1255.47 743.249 C 1248.55 767.535 1243.17 794.96 1235.6 818.489 C 1224.28 816.288 1211.99 813.96 1200.51 813.157 C 1184.7 782.005 1172.72 749.455 1157.45 718.812 z"/>
<path transform="translate(0,0)" fill="rgb(100,34,131)" d="M 1255.47 743.249 C 1283.34 750.977 1311.39 762.139 1338.2 773.021 C 1351.21 778.763 1417.71 807.771 1425.4 815.818 C 1385.43 828.669 1343.19 839.964 1302.59 850.848 C 1291.06 842.431 1282.68 836.87 1270.06 830.274 C 1258.55 825.623 1247.7 821.31 1235.6 818.489 C 1243.17 794.96 1248.55 767.535 1255.47 743.249 z"/>
<path transform="translate(0,0)" fill="rgb(249,6,6)" d="M 1255.47 743.249 C 1283.34 750.977 1311.39 762.139 1338.2 773.021 C 1317.27 790.995 1291.73 813.77 1270.06 830.274 C 1258.55 825.623 1247.7 821.31 1235.6 818.489 C 1243.17 794.96 1248.55 767.535 1255.47 743.249 z"/>
<path transform="translate(0,0)" fill="rgb(3,163,169)" d="M 528.66 615.214 C 542.121 601.196 557.346 601.076 576.136 599.235 C 596.31 597.258 614.221 620.383 629.084 631.301 C 643.356 627.987 658.075 624.788 672.085 620.623 C 686.372 625.558 700.846 629.933 715.475 633.738 L 716.423 634.722 C 721.191 639.765 732.037 656.759 734.663 657.992 C 772.13 675.586 831.574 697.224 869.876 708.405 L 873.223 709.204 C 889.023 714.131 906.719 720.112 922.506 724.481 C 936.879 729.784 951.406 734.983 966.137 739.188 C 991.756 746.501 1003.79 782.287 1020.28 798.182 C 1024.83 795.896 1036.04 800.299 1041.08 802.047 C 1066.34 810.819 1092.25 817.859 1117.58 826.245 C 1125.27 828.789 1140.69 833.392 1147.58 836.434 C 1145.05 843.075 1142.38 850.581 1139.44 856.956 C 1138.03 860.396 1135.47 866.084 1134.4 869.434 C 1132.1 874.974 1129.89 880.546 1127.75 886.148 C 1124.63 894.173 1121.29 903.441 1117.9 911.247 L 1111.36 928.621 C 1108.05 927.303 1104.22 925.893 1101 924.474 C 1102.18 929.306 1104.92 932.98 1107.58 937.253 C 1105.02 946.975 1092.02 981.775 1087.81 991.829 L 1085.6 997.762 C 1077.6 1021.56 1068.66 1047.28 1062.95 1071.64 C 1060.66 1081.41 1061.16 1096.4 1059.5 1105.81 C 1054.89 1105.53 1043.51 1109.53 1038.53 1110.89 C 1023.32 1115.06 994.035 1124.45 979.174 1125.77 C 973.455 1126.28 940.363 1118.71 932.27 1117.15 L 919.528 1098.9 C 908.04 1098.24 879.585 1090.26 863.232 1088.19 C 870.151 1064.39 871.6 1050 867.058 1025.55 C 866.431 1032.03 864.643 1054.48 862.649 1059.17 C 856.364 1073.94 829.824 1106.18 818.665 1117.96 C 786.617 1117.96 753.038 1117.43 721.12 1118.05 C 721.531 1135.14 721.791 1152.24 721.902 1169.34 C 714.259 1168.91 708.538 1168.88 700.678 1168.18 C 681.431 1166.46 662.313 1160.38 643.297 1164.59 C 623.306 1166.74 601.77 1174.75 582.886 1181.65 C 576.788 1172.27 575.804 1171.69 565.781 1166.62 C 570.693 1164.34 580.999 1157.66 585.307 1154.26 C 595.553 1150.06 614.564 1139.33 620.236 1129.82 C 621.895 1127.04 624.897 1120.26 626.315 1117.02 C 643.39 1110.87 663.594 1109.98 679.081 1101.39 C 680.88 1100.39 685.745 1094.83 687.346 1093.03 C 691.082 1091.32 724.412 1057.69 729.934 1052.44 C 715.41 1046.83 684.237 1025.72 670.731 1015.75 C 662.299 1011.01 654.312 1006.4 645.114 1003.34 C 646.854 999.324 646.621 998.863 646.33 994.332 C 619.475 972.012 589.045 945.181 563.465 921.478 C 554.588 913.627 545.507 905.645 538.402 896.103 C 519.753 871.058 512.541 844.013 493.813 818.521 C 479.382 800.333 460.696 781.112 445.031 763.421 C 434.624 755.919 434.893 747.467 434.812 735.855 L 431.224 727.788 L 425.875 716.265 C 432.653 705.638 455.168 672.284 463.856 666.606 C 477.409 661.317 490.818 655.666 504.069 649.659 C 512.47 635.547 518.427 627.677 528.66 615.214 z M 1044.26 955.925 C 1063.55 951.085 1074.34 935.38 1068.38 915.752 C 1064.87 904.413 1056.9 894.993 1046.29 889.664 C 1038.38 885.603 1031.53 884.511 1022.84 885.15 C 1002.41 890.855 991.657 905.688 998.957 926.984 C 1002.93 938.285 1011.33 947.488 1022.22 952.482 C 1029.31 955.731 1036.52 956.751 1044.26 955.925 z M 837.014 829.952 C 881.643 816.196 857.458 758.644 812.612 762.142 C 764.725 777.121 797.822 839.166 837.014 829.952 z M 836.165 909.502 C 849.884 906.857 858.895 893.634 856.338 879.898 C 853.781 866.163 840.615 857.068 826.864 859.537 C 812.988 862.029 803.792 875.34 806.372 889.2 C 808.952 903.06 822.322 912.17 836.165 909.502 z"/>
<path transform="translate(0,0)" fill="rgb(244,225,189)" d="M 434.812 735.855 C 465.902 744.353 488.591 747.607 519.964 759.012 C 574.236 778.742 638.724 831.251 696.528 827.246 C 719.422 829.255 732.208 843.904 751.111 856.506 C 748.222 871.177 746.512 886.019 743.736 900.292 L 676.22 908.269 C 674.747 924.941 673.011 942.142 672.789 958.864 C 695.111 986.729 718.878 1014.22 740.142 1042.85 C 737.069 1045.7 732.718 1049.48 729.934 1052.44 C 715.41 1046.83 684.237 1025.72 670.731 1015.75 C 662.299 1011.01 654.312 1006.4 645.114 1003.34 C 646.854 999.324 646.621 998.863 646.33 994.332 C 619.475 972.012 589.045 945.181 563.465 921.478 C 554.588 913.627 545.507 905.645 538.402 896.103 C 519.753 871.058 512.541 844.013 493.813 818.521 C 479.382 800.333 460.696 781.112 445.031 763.421 C 434.624 755.919 434.893 747.467 434.812 735.855 z"/>
<path transform="translate(0,0)" fill="rgb(188,156,116)" d="M 445.031 763.421 C 519.947 777.378 565.519 798.55 626.504 844.826 C 632.342 849.256 657.671 865.774 660.796 869.811 C 617.727 852.428 574.962 819.315 529.535 806.817 C 518.747 803.849 501.946 811.597 493.813 818.521 C 479.382 800.333 460.696 781.112 445.031 763.421 z"/>
<path transform="translate(0,0)" fill="rgb(4,0,5)" d="M 646.33 994.332 C 652.144 999.234 666.206 1010.53 670.731 1015.75 C 662.299 1011.01 654.312 1006.4 645.114 1003.34 C 646.854 999.324 646.621 998.863 646.33 994.332 z"/>
<path transform="translate(0,0)" fill="rgb(3,163,169)" d="M 726.069 927.791 C 735.458 928.648 784.082 936.285 790.541 941.613 C 811.641 959.017 846.379 995.692 865.805 1017.82 C 866.914 1019.09 867.003 1023.93 867.058 1025.55 C 866.431 1032.03 864.643 1054.48 862.649 1059.17 C 856.364 1073.94 829.824 1106.18 818.665 1117.96 C 786.617 1117.96 753.038 1117.43 721.12 1118.05 C 721.531 1135.14 721.791 1152.24 721.902 1169.34 C 714.259 1168.91 708.538 1168.88 700.678 1168.18 C 681.431 1166.46 662.313 1160.38 643.297 1164.59 C 623.306 1166.74 601.77 1174.75 582.886 1181.65 C 576.788 1172.27 575.804 1171.69 565.781 1166.62 C 570.693 1164.34 580.999 1157.66 585.307 1154.26 C 595.553 1150.06 614.564 1139.33 620.236 1129.82 C 621.895 1127.04 624.897 1120.26 626.315 1117.02 C 643.39 1110.87 663.594 1109.98 679.081 1101.39 C 680.88 1100.39 685.745 1094.83 687.346 1093.03 C 691.082 1091.32 724.412 1057.69 729.934 1052.44 C 732.718 1049.48 737.069 1045.7 740.142 1042.85 C 747.573 1035.31 755.634 1027.78 763.293 1020.42 C 751.989 1005.54 737.82 986.938 728.802 970.677 C 723.883 961.808 725.734 938.755 726.069 927.791 z"/>
<path transform="translate(0,0)" fill="rgb(100,34,131)" d="M 743.736 900.292 C 761.751 913.265 779.482 927.389 797.415 940.635 C 822.031 939.3 863.677 936.158 887.318 938.276 C 910.447 940.347 958.467 964.034 978.897 976.462 C 986.433 975.363 992.639 974.441 1000.23 974.014 C 1008.27 976.335 1056.3 971.906 1060.41 977.235 C 1039.89 979.389 1024.81 978.026 1001.04 981.15 L 1000.16 982.607 C 993.247 983.989 972.402 987.873 966.555 991.052 C 953.336 998.24 924.625 1021.17 915.645 1032.47 C 911.526 1037.66 906.688 1072.57 905.843 1079.92 C 910.342 1086.01 915.439 1092.62 919.528 1098.9 C 908.04 1098.24 879.585 1090.26 863.232 1088.19 C 870.151 1064.39 871.6 1050 867.058 1025.55 C 867.003 1023.93 866.914 1019.09 865.805 1017.82 C 846.379 995.692 811.641 959.017 790.541 941.613 C 784.082 936.285 735.458 928.648 726.069 927.791 C 725.734 938.755 723.883 961.808 728.802 970.677 C 737.82 986.938 751.989 1005.54 763.293 1020.42 C 755.634 1027.78 747.573 1035.31 740.142 1042.85 C 718.878 1014.22 695.111 986.729 672.789 958.864 C 673.011 942.142 674.747 924.941 676.22 908.269 L 743.736 900.292 z"/>
<path transform="translate(0,0)" fill="rgb(249,6,6)" d="M 1020.28 798.182 C 1024.83 795.896 1036.04 800.299 1041.08 802.047 C 1066.34 810.819 1092.25 817.859 1117.58 826.245 C 1125.27 828.789 1140.69 833.392 1147.58 836.434 C 1145.05 843.075 1142.38 850.581 1139.44 856.956 C 1138.03 860.396 1135.47 866.084 1134.4 869.434 C 1132.1 874.974 1129.89 880.546 1127.75 886.148 C 1124.63 894.173 1121.29 903.441 1117.9 911.247 L 1111.36 928.621 C 1108.05 927.303 1104.22 925.893 1101 924.474 C 1095.78 916.716 1090.33 907.343 1085.39 899.284 C 1077.15 887.226 1065.13 867.963 1057.95 855.533 C 1046.14 839.328 1030.9 815.291 1020.28 798.182 z"/>
<path transform="translate(0,0)" fill="rgb(100,34,131)" d="M 1057.95 855.533 C 1085.08 856.478 1112.24 856.068 1139.44 856.956 C 1138.03 860.396 1135.47 866.084 1134.4 869.434 C 1132.1 874.974 1129.89 880.546 1127.75 886.148 C 1124.63 894.173 1121.29 903.441 1117.9 911.247 L 1111.36 928.621 C 1108.05 927.303 1104.22 925.893 1101 924.474 C 1095.78 916.716 1090.33 907.343 1085.39 899.284 C 1077.15 887.226 1065.13 867.963 1057.95 855.533 z"/>
<path transform="translate(0,0)" fill="rgb(4,92,37)" d="M 1085.39 899.284 L 1090.24 898.53 C 1099.26 902.711 1108.81 907.353 1117.9 911.247 L 1111.36 928.621 C 1108.05 927.303 1104.22 925.893 1101 924.474 C 1095.78 916.716 1090.33 907.343 1085.39 899.284 z"/>
<path transform="translate(0,0)" fill="rgb(250,109,4)" d="M 1127.75 886.148 C 1124.63 894.173 1121.29 903.441 1117.9 911.247 C 1108.81 907.353 1099.26 902.711 1090.24 898.53 C 1102.89 893.567 1114.7 889.95 1127.75 886.148 z"/>
<path transform="translate(0,0)" fill="rgb(100,34,131)" d="M 431.224 727.788 C 445.906 728.94 462.767 733.873 477 737.057 C 520.767 746.847 555.821 764.83 594.934 785.626 C 607.528 792.322 624.298 801.922 637.094 807.396 C 645.977 811.201 655.064 814.513 664.312 817.316 C 671.293 819.405 691.466 824.102 696.528 827.246 C 638.724 831.251 574.236 778.742 519.964 759.012 C 488.591 747.607 465.902 744.353 434.812 735.855 L 431.224 727.788 z"/>
<path transform="translate(0,0)" fill="url(#Gradient1)" d="M 959.9 1055.61 C 999.113 1009.18 1024.1 990.972 1087.81 991.829 L 1085.6 997.762 C 1038.14 1002.04 996.947 1027.77 959.9 1055.61 z"/>
<path transform="translate(0,0)" fill="rgb(24,70,116)" d="M 1000.23 974.014 C 1030.8 968.354 1062.5 974.107 1091.98 982.147 L 1090.57 982.151 C 1074.47 982.117 1058.96 979.053 1041.69 979.164 C 1029.56 979.242 1009.96 982.804 1000.16 982.607 L 1001.04 981.15 C 1024.81 978.026 1039.89 979.389 1060.41 977.235 C 1056.3 971.906 1008.27 976.335 1000.23 974.014 z"/>
<path transform="translate(0,0)" fill="rgb(39,7,57)" d="M 660.208 639.639 C 693.331 635.395 723.622 658.808 727.863 691.931 C 732.103 725.055 708.687 755.343 675.563 759.58 C 642.444 763.816 612.161 740.404 607.921 707.286 C 603.682 674.168 627.09 643.882 660.208 639.639 z"/>
<path transform="translate(0,0)" fill="rgb(250,109,4)" d="M 614.824 693.373 C 618.677 645.26 681.843 633.682 709.626 668.467 C 716.619 677.222 722.804 694.213 719.512 705.445 C 717.716 700.041 711.046 692.472 706.71 688.719 C 704.928 691.116 703.39 693.083 699.951 692.654 C 688.554 691.235 675.546 687.681 666.342 680.569 C 663.761 678.575 663.502 675.739 663.448 672.846 L 662.786 672.651 C 655.434 675.038 639.7 681.006 632.821 681.035 L 632.1 679.638 C 626.342 682.573 620.188 687.793 616.019 692.66 L 614.824 693.373 z"/>
<path transform="translate(0,0)" fill="rgb(253,250,250)" d="M 663.448 672.846 C 682.259 665.78 694.967 675.114 706.71 688.719 C 704.928 691.116 703.39 693.083 699.951 692.654 C 688.554 691.235 675.546 687.681 666.342 680.569 C 663.761 678.575 663.502 675.739 663.448 672.846 z"/>
<path transform="translate(0,0)" fill="rgb(253,250,250)" d="M 632.821 681.035 C 638.006 671.938 653.467 669.833 662.786 672.651 C 655.434 675.038 639.7 681.006 632.821 681.035 z"/>
<path transform="translate(0,0)" fill="rgb(250,109,4)" d="M 616.019 692.66 C 633.115 725.752 670.887 738.141 703.213 719.473 C 709.459 715.866 714.834 712.698 719.378 706.909 C 718.932 719.335 709.813 733.963 700.395 741.528 C 688.859 750.705 674.045 754.711 659.456 752.598 C 645.503 750.685 632.919 743.207 624.567 731.867 C 616.418 720.8 612.921 706.984 614.824 693.373 L 616.019 692.66 z"/>
<path transform="translate(0,0)" fill="rgb(241,1,235)" d="M 905.511 826.245 C 955.96 822.035 973.687 884.042 927.501 899.006 C 918.221 899.925 910.726 899.394 902.195 895.313 C 891.867 890.377 884.056 881.37 880.631 870.448 C 874.224 849.415 884.825 832.207 905.511 826.245 z"/>
<path transform="translate(0,0)" fill="rgb(90,253,3)" fill-opacity="0.988235" d="M 1022.84 885.15 C 1031.53 884.511 1038.38 885.603 1046.29 889.664 C 1056.9 894.993 1064.87 904.413 1068.38 915.752 C 1074.34 935.38 1063.55 951.085 1044.26 955.925 C 1036.52 956.751 1029.31 955.731 1022.22 952.482 C 1011.33 947.488 1002.93 938.285 998.957 926.984 C 991.657 905.688 1002.41 890.855 1022.84 885.15 z"/>
<path transform="translate(0,0)" fill="rgb(90,253,3)" fill-opacity="0.988235" d="M 812.612 762.142 C 857.458 758.644 881.643 816.196 837.014 829.952 C 797.822 839.166 764.725 777.121 812.612 762.142 z"/>
<path transform="translate(0,0)" fill="rgb(241,1,235)" d="M 912.516 742.276 C 953.177 741.94 977.65 792.449 935.648 805.826 C 891.039 808.617 872.335 750.404 912.516 742.276 z"/>
<path transform="translate(0,0)" fill="rgb(90,253,3)" fill-opacity="0.988235" d="M 826.864 859.537 C 840.615 857.068 853.781 866.163 856.338 879.898 C 858.895 893.634 849.884 906.857 836.165 909.502 C 822.322 912.17 808.952 903.06 806.372 889.2 C 803.792 875.34 812.988 862.029 826.864 859.537 z"/>
<path transform="translate(0,0)" fill="rgb(250,109,4)" d="M 778.815 693.199 C 805.689 690.796 823.385 720.272 797.463 734.569 C 771.245 737.932 753.286 707.047 778.815 693.199 z"/>
<path transform="translate(0,0)" fill="rgb(241,1,235)" d="M 988.125 831.087 C 996.715 830.916 1004.32 833.937 1008.97 841.535 C 1011.68 845.881 1012.38 851.185 1010.9 856.086 C 1008.87 862.605 1004.64 865.459 998.985 868.472 C 974.903 868.734 962.845 842.268 988.125 831.087 z"/>
<path transform="translate(0,0)" fill="rgb(90,253,3)" d="M 947.714 919.717 C 952.237 917.928 957.376 918.764 961.099 921.894 C 964.822 925.024 966.527 929.945 965.54 934.707 C 964.552 939.47 961.032 943.307 956.372 944.7 C 949.583 946.729 942.4 943.05 940.08 936.355 C 937.759 929.659 941.125 922.324 947.714 919.717 z"/>
<path transform="translate(0,0)" fill="rgb(54,32,102)" d="M 510.768 680.735 C 514.784 680.531 522.729 684.45 526.893 686.23 L 516.996 696.483 C 515.889 696.931 514.65 697.115 513.449 697.378 C 507.262 695.003 504.199 693.022 504.269 686.009 C 506.335 682.501 506.7 683.128 510.768 680.735 z"/>
<path transform="translate(0,0)" fill="rgb(39,7,57)" d="M 525.167 1141.22 C 546.482 1140.95 567.8 1140.95 589.116 1141.22 C 590.296 1144.2 586.827 1150.67 585.307 1154.26 C 580.999 1157.66 570.693 1164.34 565.781 1166.62 C 575.804 1171.69 576.788 1172.27 582.886 1181.65 C 601.77 1174.75 623.306 1166.74 643.297 1164.59 C 662.313 1160.38 681.431 1166.46 700.678 1168.18 C 708.538 1168.88 714.259 1168.91 721.902 1169.34 L 722.001 1180.62 C 696.688 1183.57 673.19 1176.74 648.174 1171.62 C 680.305 1219.55 712.85 1272.03 744.231 1320.82 C 743.741 1261.19 743.667 1201.55 744.009 1141.92 C 762.547 1141.49 781.091 1141.44 799.63 1141.77 C 792.314 1147.48 779.669 1156.42 779.786 1165.09 C 780.207 1196.26 813.522 1195.49 829.883 1175.52 C 833.817 1170.72 843.864 1162.47 848.306 1160.54 L 848.081 1364.96 C 848.08 1405.63 847.134 1450.6 848.236 1490.98 C 816.634 1491.63 775.262 1492.08 743.779 1490.85 C 707.982 1435.13 669.349 1372.99 630.982 1319.7 C 630.224 1374.92 629.389 1436.21 630.595 1491.02 L 525.92 1491.01 L 525.947 1304.4 C 525.95 1269.69 526.514 1233.26 525.738 1198.66 C 525.552 1194.67 525.919 1187.21 526.004 1182.98 C 526.002 1170.4 526.435 1153.31 525.167 1141.22 z"/>
<path transform="translate(0,0)" fill="rgb(100,34,131)" d="M 525.167 1141.22 C 546.482 1140.95 567.8 1140.95 589.116 1141.22 C 590.296 1144.2 586.827 1150.67 585.307 1154.26 C 580.999 1157.66 570.693 1164.34 565.781 1166.62 C 575.804 1171.69 576.788 1172.27 582.886 1181.65 L 584.083 1185.53 C 575.342 1208 568.804 1215.34 543.316 1213.84 C 534.13 1208.47 532.983 1204.61 525.738 1198.66 C 525.552 1194.67 525.919 1187.21 526.004 1182.98 C 526.002 1170.4 526.435 1153.31 525.167 1141.22 z"/>
<path transform="translate(0,0)" fill="rgb(39,7,57)" d="M 525.167 1141.22 C 546.482 1140.95 567.8 1140.95 589.116 1141.22 C 590.296 1144.2 586.827 1150.67 585.307 1154.26 C 580.999 1157.66 570.693 1164.34 565.781 1166.62 L 564.547 1166.66 C 542.808 1167.2 540.615 1164.04 526.004 1182.98 C 526.002 1170.4 526.435 1153.31 525.167 1141.22 z"/>
<path transform="translate(0,0)" fill="rgb(54,32,102)" d="M 582.886 1181.65 C 601.77 1174.75 623.306 1166.74 643.297 1164.59 C 642.525 1165.67 641.169 1167.63 639.91 1168.12 C 623.301 1174.56 600.044 1178.74 584.083 1185.53 L 582.886 1181.65 z"/>
<path transform="translate(0,0)" fill="rgb(39,7,57)" d="M 1072.82 1141.35 C 1108.01 1141.88 1143.2 1141.93 1178.38 1141.47 L 1178.46 1491.06 L 1073.05 1491.19 C 1072.6 1448.68 1072.48 1406.16 1072.69 1363.65 L 985.932 1363.54 L 986.161 1491.36 C 953.911 1491.32 912.134 1490.04 880.615 1491.55 C 880.212 1448.77 880.125 1406 880.355 1363.22 C 880.344 1316.82 879.892 1269.61 880.43 1223.29 C 913.461 1221.94 911.443 1202.82 912.153 1177.66 C 923.514 1156.37 954.282 1150.26 976.451 1152.12 C 981.478 1152.54 988.224 1157.32 984.772 1162.61 C 981.103 1168.22 970.932 1169.77 965.115 1172.12 C 950.499 1176.38 940.3 1189.26 949.413 1203.98 C 957.455 1216.97 973.284 1217.07 985.593 1211.72 C 986.617 1226.82 986.074 1246.83 985.876 1262.25 C 1014.34 1262.11 1044.52 1261.5 1072.89 1262.01 C 1072.7 1222.55 1071.94 1180.6 1072.82 1141.35 z"/>
<path transform="translate(0,0)" fill="rgb(39,7,57)" d="M 1366.71 1134.38 C 1427.85 1131.39 1484.83 1149.35 1519.7 1201.92 C 1535.52 1225.76 1540.79 1244.87 1546.65 1272.15 C 1514.08 1273.18 1478.57 1270.6 1446.37 1271.92 C 1427.34 1235.02 1390.88 1220.92 1351.48 1234.52 C 1332.42 1241.06 1316.86 1255.1 1308.38 1273.38 C 1297.68 1295.99 1297.04 1325.72 1305.67 1349.06 C 1312.56 1367.98 1326.91 1383.24 1345.36 1391.31 C 1365.77 1400.23 1388.88 1400.76 1409.68 1392.78 C 1429.16 1385.2 1438.96 1373.79 1447.3 1355.18 C 1473.28 1354.9 1499.27 1354.8 1525.25 1354.87 L 1546.53 1355.06 C 1535.53 1433.66 1478.68 1488.9 1399.66 1494.63 C 1346.75 1498.47 1296.27 1488.01 1255.15 1453.09 C 1182.01 1390.98 1177.92 1265.33 1238.71 1193.71 C 1271.82 1154.7 1316.61 1138.14 1366.71 1134.38 z"/>
<path transform="translate(0,0)" fill="rgb(100,34,131)" d="M 867.058 1025.55 C 871.6 1050 870.151 1064.39 863.232 1088.19 C 879.585 1090.26 908.04 1098.24 919.528 1098.9 L 932.27 1117.15 C 940.363 1118.71 973.455 1126.28 979.174 1125.77 C 994.035 1124.45 1023.32 1115.06 1038.53 1110.89 C 1043.51 1109.53 1054.89 1105.53 1059.5 1105.81 L 1058.89 1119.06 C 1055.9 1118.98 1052.85 1118.44 1050.51 1119.96 C 1049.75 1136.01 1050.36 1155.05 1050.51 1171.33 C 1045.6 1171.85 1041.78 1172.21 1036.92 1173.31 L 1029.17 1174.65 C 1016.27 1178.95 1003.67 1184.01 996.962 1196.43 C 994.588 1200.82 986.201 1210.05 985.593 1211.72 C 973.284 1217.07 957.455 1216.97 949.413 1203.98 C 940.3 1189.26 950.499 1176.38 965.115 1172.12 C 970.932 1169.77 981.103 1168.22 984.772 1162.61 C 988.224 1157.32 981.478 1152.54 976.451 1152.12 C 954.282 1150.26 923.514 1156.37 912.153 1177.66 C 911.443 1202.82 913.461 1221.94 880.43 1223.29 C 874.115 1222.98 864.528 1217.2 862.538 1211.05 C 856.72 1193.08 867.819 1179.01 882.077 1170.14 C 881.015 1163.85 881.027 1156.83 880.823 1150.41 C 870.375 1154.16 858.99 1157.34 848.306 1160.54 C 843.864 1162.47 833.817 1170.72 829.883 1175.52 C 813.522 1195.49 780.207 1196.26 779.786 1165.09 C 779.669 1156.42 792.314 1147.48 799.63 1141.77 C 808.587 1140.76 822.562 1142.17 831.308 1141.2 C 843.535 1139.83 862.165 1131.5 874.238 1126.74 C 862.913 1123.95 843.97 1116.56 832.885 1112.45 C 827.397 1118.81 827.091 1118.32 818.665 1117.96 C 829.824 1106.18 856.364 1073.94 862.649 1059.17 C 864.643 1054.48 866.431 1032.03 867.058 1025.55 z"/>
<path transform="translate(0,0)" fill="rgb(39,7,57)" d="M 867.058 1025.55 C 871.6 1050 870.151 1064.39 863.232 1088.19 C 879.585 1090.26 908.04 1098.24 919.528 1098.9 L 932.27 1117.15 C 940.363 1118.71 973.455 1126.28 979.174 1125.77 C 994.035 1124.45 1023.32 1115.06 1038.53 1110.89 C 1043.51 1109.53 1054.89 1105.53 1059.5 1105.81 L 1058.89 1119.06 C 1055.9 1118.98 1052.85 1118.44 1050.51 1119.96 C 1049.75 1136.01 1050.36 1155.05 1050.51 1171.33 C 1045.6 1171.85 1041.78 1172.21 1036.92 1173.31 L 1029.17 1174.65 C 1026.14 1170.35 1027.94 1168.96 1030 1164.82 C 1023.52 1155.43 1013.51 1146.5 1003.98 1140.29 C 993.816 1139.77 980.031 1141.59 969.918 1138.81 C 932.006 1128.37 914.666 1113.71 874.238 1126.74 C 862.913 1123.95 843.97 1116.56 832.885 1112.45 C 827.397 1118.81 827.091 1118.32 818.665 1117.96 C 829.824 1106.18 856.364 1073.94 862.649 1059.17 C 864.643 1054.48 866.431 1032.03 867.058 1025.55 z"/>
<path transform="translate(0,0)" fill="rgb(54,32,102)" d="M 1030 1164.82 C 1033.83 1168.13 1035.35 1168.62 1036.92 1173.31 L 1029.17 1174.65 C 1026.14 1170.35 1027.94 1168.96 1030 1164.82 z"/>
<path transform="translate(0,0)" fill="rgb(39,7,57)" d="M 880.823 1150.41 C 886.565 1149.63 892.355 1148.7 898.141 1148.54 C 893.466 1157.5 889.546 1163.1 882.077 1170.14 C 881.015 1163.85 881.027 1156.83 880.823 1150.41 z"/>
<path transform="translate(0,0)" fill="rgb(39,7,57)" d="M 563.465 921.478 C 589.045 945.181 619.475 972.012 646.33 994.332 C 646.621 998.863 646.854 999.324 645.114 1003.34 C 633.411 999.033 626.077 996.134 613.052 997.259 C 597.966 998.563 575.825 1007.23 570.077 1022.23 C 567.099 1029.99 567.344 1040.48 560.911 1047.41 C 556.148 1052.54 548.181 1055.25 541.421 1055.48 C 533.305 1055.75 527.147 1054.19 521.447 1048.35 C 518.714 1045.56 515.025 1040.65 515.738 1036.62 C 519.03 1018.03 538.259 1014.9 550.41 1005.31 C 554.651 1001.97 557.589 996.79 557.753 991.742 C 557.85 988.762 555.471 982.592 553.557 981.612 C 538.507 973.901 503.866 989.5 490.393 996.529 C 478.809 1002.57 471.825 1013.92 457.891 1016.24 C 451.39 1017.46 440.181 1017.14 434.7 1012.79 C 425.029 1005.11 426.333 993.414 433.265 984.549 C 446.105 968.126 465.058 979.58 479.075 977.023 C 507.064 971.916 546.102 944.934 562.654 922.593 L 563.465 921.478 z"/>
<path transform="translate(0,0)" fill="rgb(100,34,131)" d="M 613.944 1089.43 C 605.11 1088.04 591.01 1087.84 585.263 1080.8 C 572.204 1064.79 592.601 1048.25 608.998 1051.16 C 624.091 1053.83 622.538 1064.53 629.5 1073.7 C 640.584 1088.3 670.795 1091.06 687.346 1093.03 C 685.745 1094.83 680.88 1100.39 679.081 1101.39 C 663.594 1109.98 643.39 1110.87 626.315 1117.02 C 624.897 1120.26 621.895 1127.04 620.236 1129.82 C 614.564 1139.33 595.553 1150.06 585.307 1154.26 C 586.827 1150.67 590.296 1144.2 589.116 1141.22 C 591.668 1140.76 590.61 1141.4 592.496 1139.58 C 587.023 1129.29 555.4 1124.65 544.092 1126.56 C 526.685 1129.51 500.584 1143.87 488.641 1121.58 C 482.295 1109.73 492.266 1092.41 503.858 1088.15 C 519.515 1082.39 531.811 1093.73 544.882 1100.11 C 556.531 1104.15 611.53 1102.57 621.057 1098.92 L 621.185 1097.58 C 618.655 1093.54 617.517 1092.75 613.944 1089.43 z"/>
</svg>